<?xml version="1.0" encoding="UTF-8"?>
<svg id="Layer_1" xmlns="http://www.w3.org/2000/svg" version="1.1" viewBox="0 0 364.7 80.6">
  <!-- Generator: Adobe Illustrator 29.3.1, SVG Export Plug-In . SVG Version: 2.1.0 Build 151)  -->
  <defs>
    <style>
      .st0 {
        fill: #5319e0;
      }

      .st1 {
        mix-blend-mode: multiply;
        opacity: .5;
      }

      .st1, .st2 {
        isolation: isolate;
      }

      .st1, .st3 {
        fill: #b3a4e0;
      }

      .st4 {
        fill: #c98659;
      }

      .st5 {
        fill: #ececd9;
      }

      .st6 {
        fill: #ba5200;
      }
    </style>
  </defs>
  <g class="st2">
    <g id="Layer_2">
      <g id="Layer_3">
        <g>
          <g>
            <path class="st6" d="M81.9,29.8c2.9,3,5.9,6.4,9.6,10.6.4.5.8.9,1.2,1.4l1.3.8,7.8-7.1,1.8,2.1c0-.3,0-.7,0-1,0-2.3-.2-4.6-.6-6.8l-21.8-.5.7.7h0Z"/>
            <path class="st6" d="M61.6,18.8l4.2,4.9c2,2.3,3.7,4.4,5.3,6.4l4.6-6.7,5.4,5.7,21.1-2.6c-1.4-5-3.8-9.5-7.1-13.4l-31.5-.4,29.1-2.3C86.2,4,77.2,0,67.3,0,52.4,0,39.6,9,34,21.8l22.8,2.5,4.8-5.5h0Z"/>
            <path class="st6" d="M49,33.1l6.9-7.8-23.3.4c-1,3.4-1.6,6.9-1.6,10.7s.2,4.6.6,6.8l12-15.1s5.4,5,5.4,5Z"/>
            <path class="st6" d="M33,48.6h0"/>
            <path class="st4" d="M81.2,29.1l21.8.5c-.2-1.1-.5-2.1-.8-3.2l-21.1,2.6h0c0,0,0,0,0,0Z"/>
            <path class="st4" d="M95.2,13c-.8-.9-1.6-1.8-2.4-2.6l-29.1,2.3s31.5.4,31.5.3Z"/>
            <path class="st4" d="M56.7,24.3l-22.8-2.5c-.6,1.3-1,2.6-1.5,3.9l23.3-.4.9-1h0Z"/>
            <polyline class="st4" points="56.7 24.3 55.8 25.3 64.6 25.1"/>
            <polygon class="st3" points="26.3 61.2 24.9 64.3 22.5 63.1 23.9 64.8 12.2 71.5 8.6 75.9 19.8 75.9 31.3 62.1 26.3 61.2"/>
            <polygon class="st1" points="26.3 61.2 24.9 64.3 22.5 63.1 23.9 64.8 12.2 71.5 8.6 75.9 19.8 75.9 31.3 62.1 26.3 61.2"/>
            <polygon class="st3" points="46.5 43.9 44.3 41.3 43.8 41.9 42.4 48.9 46.5 43.9"/>
            <polygon class="st1" points="46.5 43.9 44.3 41.3 43.8 41.9 42.4 48.9 46.5 43.9"/>
            <path class="st5" d="M22.5,63.1l2.4,1.2,1.5-3.2,5,.9.9-1.1c-.6-.9-1.3-2.1-1.8-3h-.1c0,.1-3.4-4-3.4-4l-14.7,17.5,11.7-6.7-1.5-1.8h0Z"/>
            <path class="st5" d="M36.6,55.8s0,0,0,0c-.2-.2-.3-.5-.5-.7-.1-.2-.3-.5-.4-.7-.1-.2-.3-.5-.4-.8-.1-.2-.2-.5-.3-.7,0,0,0-.1,0-.2l-2.5,3c.3,1.2.7,2.8,1,4.1l3.3-4h0Z"/>
            <path class="st5" d="M36.5,55.8s0,0,0,0h0s0,0,0,0Z"/>
            <path class="st5" d="M35.2,53.6c-.1-.2-.2-.5-.3-.7.1.2.2.5.3.7Z"/>
            <path class="st5" d="M36.1,55c-.1-.2-.3-.5-.4-.7.1.2.3.5.4.7Z"/>
            <path class="st5" d="M35.7,54.3c-.1-.2-.3-.5-.4-.8.1.3.3.5.4.8Z"/>
            <path class="st5" d="M36.5,55.8c-.2-.2-.3-.5-.5-.7.2.2.3.5.5.7Z"/>
            <path class="st5" d="M34.8,52.7c0,0,0,.1,0,.2,0,0,0-.1,0-.2h0Z"/>
            <path class="st5" d="M42.4,48.9l1.5-7-9,10.8c0,0,0,.1,0,.2.1.2.2.5.3.7.1.3.3.5.4.8.1.2.3.5.4.7.2.2.3.5.5.7,0,0,0,0,0,0l5.8-7h0Z"/>
            <polygon class="st3" points="60.7 49.3 66.8 57.5 63.2 57.6 64.9 59.7 66.8 60.1 65.5 60.5 69.9 65.7 82.2 54 84 46.5 79.6 41.2 79.9 44.5 82.8 47.9 74.1 52.2 72.3 63.1 71.9 62 66.8 49.9 70.5 44.9 69.8 42.1 66.3 37.9 66.8 43.5 60.7 49.3"/>
            <path class="st3" d="M58.6,71.7c-.2,0-.5-.1-.7-.2-.3,0-.7-.2-1-.3-.2,0-.4-.1-.6-.2-.4-.1-.7-.2-1.1-.4-.2,0-.3-.1-.5-.2-.5-.2-1-.4-1.5-.6-.1,0-.2-.1-.4-.2-.4-.2-.8-.3-1.2-.5-.2,0-.4-.2-.6-.3-.3-.2-.6-.3-.9-.5-.2-.1-.4-.2-.6-.3-.2-.1-.4-.2-.6-.3l-2.1,8.1h1.3l11.1-4c-.2,0-.4,0-.6-.1Z"/>
            <path class="st3" d="M56.3,71.1c-.4-.1-.7-.2-1.1-.4.4.1.7.3,1.1.4Z"/>
            <path class="st3" d="M58,71.5c-.3,0-.7-.2-1-.3.3,0,.7.2,1,.3Z"/>
            <path class="st3" d="M48.9,67.8c.2.1.4.2.6.3-.2-.1-.4-.2-.6-.3h0Z"/>
            <path class="st3" d="M58.6,71.7c.2,0,.4,0,.6.1h0c-.2,0-.4,0-.6-.1h0Z"/>
            <path class="st3" d="M54.7,70.5c-.5-.2-1-.4-1.5-.6.5.2,1,.4,1.5.6Z"/>
            <path class="st3" d="M51.1,68.9c-.3-.2-.6-.3-.9-.5.3.2.6.3.9.5Z"/>
            <path class="st3" d="M52.8,69.8c-.4-.2-.8-.3-1.2-.5.4.2.8.3,1.2.5Z"/>
            <path class="st3" d="M51.7,69.2c-.2,0-.4-.2-.6-.3.2,0,.4.2.6.3Z"/>
            <path class="st3" d="M53.2,69.9c-.1,0-.2-.1-.4-.2.1,0,.2.1.4.2Z"/>
            <path class="st3" d="M55.2,70.7c-.2,0-.3-.1-.5-.2.2,0,.3.1.5.2Z"/>
            <path class="st3" d="M58.6,71.7c-.2,0-.5-.1-.7-.2.2,0,.5.1.7.2Z"/>
            <path class="st3" d="M57,71.3c-.2,0-.4-.1-.6-.2.2,0,.4.1.6.2Z"/>
            <path class="st3" d="M50.2,68.5c-.2-.1-.4-.2-.6-.3.2.1.4.2.6.3Z"/>
            <path class="st3" d="M66,69.4l1-.9-5.5-6.6-12,3.9-.6,2.1c.2.1.4.2.6.3.2.1.4.2.6.3.3.2.6.3.9.5.2,0,.4.2.6.3.4.2.8.3,1.2.5.1,0,.2.1.4.2.5.2,1,.4,1.5.6.2,0,.3.1.5.2.4.1.7.3,1.1.4.2,0,.4.1.6.2.3,0,.7.2,1,.3.2,0,.5.1.7.2.2,0,.4,0,.6.1l6.8-2.5h0Z"/>
            <polygon class="st3" points="55.6 58 58.7 58.5 58.2 57.9 55.6 58"/>
            <polygon class="st3" points="64.9 59.7 63.2 57.6 60.7 57.8 61.8 59.1 64.9 59.7"/>
            <polygon class="st3" points="68.4 67.1 69.9 65.7 65.5 60.5 63.5 61.1 68.4 67.1"/>
            <polygon class="st3" points="60.7 57.8 58.2 57.9 58.7 58.5 61.8 59.1 60.7 57.8"/>
            <polygon class="st3" points="63.5 61.1 61.4 61.8 67 68.4 68.4 67.1 63.5 61.1"/>
            <polygon class="st3" points="66.8 49.9 71.9 62 68.1 50.8 67.8 50 68.7 49.4 73.3 47.2 71.8 43.6 71.4 44 69.8 42.1 70.5 44.9 66.8 49.9"/>
            <polygon class="st1" points="66.8 49.9 71.9 62 68.1 50.8 67.8 50 68.7 49.4 73.3 47.2 71.8 43.6 71.4 44 69.8 42.1 70.5 44.9 66.8 49.9"/>
            <polygon class="st3" points="69.9 65.7 73.4 69.8 88.4 51.8 84 46.5 82.2 54 69.9 65.7"/>
            <polygon class="st1" points="69.9 65.7 73.4 69.8 88.4 51.8 84 46.5 82.2 54 69.9 65.7"/>
            <path class="st3" d="M70.5,72.6c-.2,0-.5,0-.7,0-.2,0-.4,0-.6,0-.6,0-1.2,0-1.9,0h0c-.6,0-1.2,0-1.8,0-.2,0-.4,0-.6,0-.4,0-.8,0-1.2,0-.2,0-.5,0-.7,0-.3,0-.7,0-1.1-.1-.2,0-.5,0-.7-.1-.3,0-.7-.1-1-.2-.2,0-.5,0-.7-.1-.1,0-.3,0-.4,0l-11.1,4h20.2l2.4-2.9-.3-.3h0Z"/>
            <path class="st1" d="M70.5,72.6c-.2,0-.5,0-.7,0-.2,0-.4,0-.6,0-.6,0-1.2,0-1.9,0h0c-.6,0-1.2,0-1.8,0-.2,0-.4,0-.6,0-.4,0-.8,0-1.2,0-.2,0-.5,0-.7,0-.3,0-.7,0-1.1-.1-.2,0-.5,0-.7-.1-.3,0-.7-.1-1-.2-.2,0-.5,0-.7-.1-.1,0-.3,0-.4,0l-11.1,4h20.2l2.4-2.9-.3-.3h0Z"/>
            <path class="st3" d="M69.8,72.7c.2,0,.5,0,.7,0h0c-.2,0-.5,0-.7,0Z"/>
            <path class="st1" d="M69.8,72.7c.2,0,.5,0,.7,0h0c-.2,0-.5,0-.7,0Z"/>
            <path class="st3" d="M67.3,72.8c-.6,0-1.2,0-1.8,0,.6,0,1.2,0,1.8,0Z"/>
            <path class="st1" d="M67.3,72.8c-.6,0-1.2,0-1.8,0,.6,0,1.2,0,1.8,0Z"/>
            <path class="st3" d="M61.3,72.3c-.3,0-.7-.1-1-.2.3,0,.7.1,1,.2Z"/>
            <path class="st1" d="M61.3,72.3c-.3,0-.7-.1-1-.2.3,0,.7.1,1,.2Z"/>
            <path class="st3" d="M64.9,72.7c-.4,0-.8,0-1.2,0,.4,0,.8,0,1.2,0Z"/>
            <path class="st1" d="M64.9,72.7c-.4,0-.8,0-1.2,0,.4,0,.8,0,1.2,0Z"/>
            <path class="st3" d="M59.2,71.8c.1,0,.3,0,.4,0-.1,0-.3,0-.4,0h0,0Z"/>
            <path class="st1" d="M59.2,71.8c.1,0,.3,0,.4,0-.1,0-.3,0-.4,0h0,0Z"/>
            <path class="st3" d="M67.3,72.8c.6,0,1.2,0,1.9,0-.6,0-1.2,0-1.9,0h0Z"/>
            <path class="st1" d="M67.3,72.8c.6,0,1.2,0,1.9,0-.6,0-1.2,0-1.9,0h0Z"/>
            <path class="st3" d="M63.1,72.5c-.3,0-.7,0-1.1-.1.3,0,.7,0,1.1.1Z"/>
            <path class="st1" d="M63.1,72.5c-.3,0-.7,0-1.1-.1.3,0,.7,0,1.1.1Z"/>
            <path class="st3" d="M69.8,72.7c-.2,0-.4,0-.6,0,.2,0,.4,0,.6,0Z"/>
            <path class="st1" d="M69.8,72.7c-.2,0-.4,0-.6,0,.2,0,.4,0,.6,0Z"/>
            <path class="st3" d="M65.5,72.7c-.2,0-.4,0-.6,0,.2,0,.4,0,.6,0Z"/>
            <path class="st1" d="M65.5,72.7c-.2,0-.4,0-.6,0,.2,0,.4,0,.6,0Z"/>
            <path class="st3" d="M62,72.4c-.2,0-.5,0-.7-.1.2,0,.5,0,.7.1Z"/>
            <path class="st1" d="M62,72.4c-.2,0-.5,0-.7-.1.2,0,.5,0,.7.1Z"/>
            <path class="st3" d="M60.3,72.1c-.2,0-.5,0-.7-.1.2,0,.5,0,.7.1Z"/>
            <path class="st1" d="M60.3,72.1c-.2,0-.5,0-.7-.1.2,0,.5,0,.7.1Z"/>
            <path class="st3" d="M63.8,72.6c-.2,0-.5,0-.7,0,.2,0,.5,0,.7,0Z"/>
            <path class="st1" d="M63.8,72.6c-.2,0-.5,0-.7,0,.2,0,.5,0,.7,0Z"/>
            <path class="st3" d="M67,68.4l-1,.9-6.8,2.5c.1,0,.3,0,.4,0,.2,0,.5,0,.7.1.3,0,.7.1,1,.2.2,0,.5,0,.7.1.3,0,.7,0,1.1.1.2,0,.5,0,.7,0,.4,0,.8,0,1.2,0,.2,0,.4,0,.6,0,.6,0,1.2,0,1.8,0h0c.6,0,1.2,0,1.9,0,.2,0,.4,0,.6,0,.2,0,.5,0,.7,0l-3.5-4.2h0Z"/>
            <path class="st1" d="M67,68.4l-1,.9-6.8,2.5c.1,0,.3,0,.4,0,.2,0,.5,0,.7.1.3,0,.7.1,1,.2.2,0,.5,0,.7.1.3,0,.7,0,1.1.1.2,0,.5,0,.7,0,.4,0,.8,0,1.2,0,.2,0,.4,0,.6,0,.6,0,1.2,0,1.8,0h0c.6,0,1.2,0,1.9,0,.2,0,.4,0,.6,0,.2,0,.5,0,.7,0l-3.5-4.2h0Z"/>
            <polygon class="st3" points="72.1 71.4 73.4 69.8 69.9 65.7 68.4 67.1 72.1 71.4"/>
            <polygon class="st1" points="72.1 71.4 73.4 69.8 69.9 65.7 68.4 67.1 72.1 71.4"/>
            <path class="st3" d="M71,72.6c-.2,0-.3,0-.5,0l.3.3.3-.4s0,0-.1,0Z"/>
            <path class="st1" d="M71,72.6c-.2,0-.3,0-.5,0l.3.3.3-.4s0,0-.1,0Z"/>
            <path class="st3" d="M70.5,72.6h0c.2,0,.3,0,.5,0-.2,0-.3,0-.5,0Z"/>
            <path class="st1" d="M70.5,72.6h0c.2,0,.3,0,.5,0-.2,0-.3,0-.5,0Z"/>
            <path class="st3" d="M71,72.6s0,0,.1,0h0s0,0-.1,0Z"/>
            <path class="st1" d="M71,72.6s0,0,.1,0h0s0,0-.1,0Z"/>
            <path class="st3" d="M72.1,71.4l-3.6-4.4-1.4,1.4,3.5,4.2c.2,0,.3,0,.5,0,0,0,0,0,.1,0l1-1.2Z"/>
            <path class="st1" d="M72.1,71.4l-3.6-4.4-1.4,1.4,3.5,4.2c.2,0,.3,0,.5,0,0,0,0,0,.1,0l1-1.2Z"/>
            <polygon class="st5" points="75 46.9 75.5 48.6 74.2 49.2 70.6 51.2 72.3 63.1 74.1 52.2 82.8 47.9 79.9 44.5 79.6 41.2 76.7 37.7 74 40.9 75.4 46.7 75 46.9"/>
            <polygon class="st5" points="75 46.9 75 46.9 75.4 46.7 74 40.9 73.5 41.6 75 46.9"/>
            <polygon class="st5" points="66.8 57.5 60.7 49.3 66.8 43.5 66.3 37.9 61.5 32.2 51.7 43.9 63.2 57.6 66.8 57.5"/>
            <polygon class="st5" points="66.8 60.1 64.9 59.7 65.5 60.5 66.8 60.1"/>
            <path class="st5" d="M48.7,67.7c-.2-.1-.4-.3-.6-.4-.3-.2-.5-.3-.8-.5-.2-.1-.4-.3-.6-.4-.2-.2-.5-.3-.7-.5-.2-.2-.4-.3-.6-.4-.2-.2-.5-.4-.7-.6-.2-.2-.4-.3-.6-.5-.3-.2-.5-.4-.8-.7l-.5-.4c-.4-.4-.8-.7-1.2-1.1-.2-.2-.3-.3-.5-.5-.2-.2-.4-.4-.6-.7-.2-.2-.3-.4-.5-.6,0,0,0,0,0,0l-5.5,9.2-.6-4.3-8.9,10.7h21.8l2.1-8.1c0,0-.1,0-.2-.1h0Z"/>
            <path class="st5" d="M46.7,66.3c-.2-.2-.5-.3-.7-.5.2.2.5.4.7.5Z"/>
            <path class="st5" d="M42.8,63.3c-.4-.4-.8-.7-1.2-1.1.4.4.8.7,1.2,1.1Z"/>
            <path class="st5" d="M48.1,67.3c-.3-.2-.5-.3-.8-.5.3.2.5.3.8.5Z"/>
            <path class="st5" d="M48.7,67.7c0,0,.1,0,.2.1h0c0,0-.1,0-.2-.1Z"/>
            <path class="st5" d="M44,64.3c-.3-.2-.5-.4-.8-.7.2.2.5.4.8.7Z"/>
            <path class="st5" d="M39.9,60.3s0,0,0,0c0,0,0,0,0,0h0Z"/>
            <path class="st5" d="M41.1,61.7c-.2-.2-.4-.4-.6-.7.2.2.4.5.6.7Z"/>
            <path class="st5" d="M45.3,65.4c-.2-.2-.5-.4-.7-.6.2.2.5.4.7.6Z"/>
            <path class="st5" d="M48.7,67.7c-.2-.1-.4-.3-.6-.4.2.1.4.3.6.4Z"/>
            <path class="st5" d="M44.6,64.8c-.2-.2-.4-.3-.6-.5.2.2.4.3.6.5Z"/>
            <path class="st5" d="M47.3,66.8c-.2-.1-.4-.3-.6-.4.2.1.4.3.6.4Z"/>
            <path class="st5" d="M43.3,63.7l-.5-.4.5.4Z"/>
            <path class="st5" d="M45.9,65.8c-.2-.2-.4-.3-.6-.4.2.2.4.3.6.4Z"/>
            <path class="st5" d="M40.5,61c-.2-.2-.3-.4-.5-.6.2.2.3.4.5.6Z"/>
            <path class="st5" d="M41.6,62.2c-.2-.2-.3-.3-.5-.5.2.2.3.3.5.5Z"/>
            <path class="st5" d="M49.5,65.7l12-3.9-2.7-3.2-3.1-.6h2.5c0-.1-9-10.9-9-10.9l-8.5,10.2-.6,3h0c0,.1,0,.2,0,.2.2.2.3.4.5.6.2.2.4.5.6.7.2.2.3.3.5.5.4.4.8.7,1.2,1.1l.5.4c.2.2.5.5.8.7.2.2.4.3.6.5.2.2.5.4.7.6.2.2.4.3.6.4.2.2.5.4.7.5.2.1.4.3.6.4.3.2.5.3.8.5.2.1.4.3.6.4,0,0,.1,0,.2.1l.6-2.1h0Z"/>
            <path class="st5" d="M39,59.2l-5.1,6.1.6,4.3,5.5-9.2c-.2-.2-.3-.4-.5-.6-.2-.2-.3-.4-.5-.6Z"/>
            <path class="st5" d="M39.4,59.8c.2.2.3.4.5.6h0c-.2-.2-.3-.4-.5-.6Z"/>
            <path class="st5" d="M39,59.2c.2.2.3.4.5.6-.2-.2-.3-.4-.5-.6h0Z"/>
            <path class="st5" d="M39.4,59.8c.2.2.3.4.5.6h0c0-.1.6-3.1.6-3.1l-1.7,2c.2.2.3.4.5.6h0Z"/>
            <polygon class="st5" points="63.2 57.6 51.7 43.9 50.4 45.5 60.7 57.8 63.2 57.6"/>
            <polygon class="st5" points="63.5 61.1 65.5 60.5 64.9 59.7 61.8 59.1 63.5 61.1"/>
            <polygon class="st5" points="61.8 59.1 58.7 58.5 61.4 61.8 63.5 61.1 61.8 59.1"/>
            <polygon class="st5" points="60.7 57.8 50.4 45.5 49.1 47 58.2 57.9 60.7 57.8"/>
            <polygon class="st3" points="100.7 60.2 107.4 68.3 108.4 67.3 102.9 62.5 106.2 59.2 104.6 59.5 100.7 60.2"/>
            <polygon class="st3" points="98.5 63.9 95.8 70.7 88.7 75.9 100.2 75.9 104.7 71.2 98.5 63.9"/>
            <polygon class="st3" points="100 60.4 99.4 61.8 101.5 64.3 106.1 69.8 107.4 68.3 100.7 60.2 100 60.4"/>
            <polygon class="st3" points="106.1 69.8 106.1 69.8 101.5 64.3 106.1 69.8"/>
            <polygon class="st3" points="101.5 64.3 99.4 61.8 99.4 61.8 101.5 64.3"/>
            <polygon class="st3" points="99.4 61.8 98.5 63.9 104.7 71.2 106.1 69.8 101.5 64.3 99.4 61.8"/>
            <polygon class="st3" points="106.2 59.2 102.9 62.5 108.4 67.3 107.4 68.3 113.8 75.9 125 75.9 103.5 50.2 105.6 57.4 106.2 59.2"/>
            <polygon class="st1" points="106.2 59.2 102.9 62.5 108.4 67.3 107.4 68.3 113.8 75.9 125 75.9 103.5 50.2 105.6 57.4 106.2 59.2"/>
            <polygon class="st3" points="101 75.9 108.6 75.9 104.9 71.5 101 75.9"/>
            <polygon class="st1" points="101 75.9 108.6 75.9 104.9 71.5 101 75.9"/>
            <polygon class="st3" points="104.7 71.2 100.2 75.9 101 75.9 104.9 71.5 104.7 71.2"/>
            <polygon class="st1" points="104.7 71.2 100.2 75.9 101 75.9 104.9 71.5 104.7 71.2"/>
            <polygon class="st3" points="106.1 69.8 111.2 75.9 113.8 75.9 107.4 68.3 106.1 69.8"/>
            <polygon class="st1" points="106.1 69.8 111.2 75.9 113.8 75.9 107.4 68.3 106.1 69.8"/>
            <polygon class="st3" points="106.1 69.8 106.2 70 104.9 71.5 108.6 75.9 111.2 75.9 106.1 69.8 106.1 69.8"/>
            <polygon class="st1" points="106.1 69.8 106.2 70 104.9 71.5 108.6 75.9 111.2 75.9 106.1 69.8 106.1 69.8"/>
            <polygon class="st3" points="104.9 71.5 106.2 70 106.1 69.8 104.7 71.2 104.9 71.5"/>
            <polygon class="st1" points="104.9 71.5 106.2 70 106.1 69.8 104.7 71.2 104.9 71.5"/>
            <path class="st5" d="M99.2,58.5l3.9-1.3-2.4-6.4s0,0,0,.1c-.1.2-.2.5-.3.8-.1.3-.3.6-.4.8-.1.2-.2.5-.4.7-.1.3-.3.5-.4.8-.1.2-.3.5-.4.7-.2.3-.3.5-.5.8-.1.2-.3.5-.4.7,0,0-.1.2-.2.3l1.6,1.9h0Z"/>
            <path class="st5" d="M98.7,54.7c.1-.2.3-.5.4-.7-.1.2-.3.5-.4.7Z"/>
            <path class="st5" d="M100.3,51.7c.1-.2.2-.5.3-.8-.1.2-.2.5-.3.8Z"/>
            <path class="st5" d="M97.8,56.2c.2-.2.3-.5.4-.7-.1.2-.3.5-.4.7Z"/>
            <path class="st5" d="M99.6,53.2c.1-.2.2-.5.4-.7-.1.2-.2.5-.4.7Z"/>
            <path class="st5" d="M99.1,54c.2-.3.3-.5.4-.8-.1.3-.3.5-.4.8Z"/>
            <path class="st5" d="M99.9,52.5c.1-.3.3-.6.4-.8-.1.3-.3.6-.4.8Z"/>
            <path class="st5" d="M100.7,50.8s0,0,0,.2c0,0,0,0,0-.1h0Z"/>
            <path class="st5" d="M97.8,56.2c0,0-.1.2-.2.3h0c0,0,.1-.2.2-.3Z"/>
            <path class="st5" d="M98.2,55.5c.2-.3.3-.5.5-.8-.2.3-.3.5-.5.8Z"/>
            <path class="st5" d="M97.8,56.2c.2-.2.3-.5.4-.7.2-.3.3-.5.5-.8.1-.2.3-.5.4-.7.2-.3.3-.5.4-.8.1-.2.2-.5.4-.7.1-.3.3-.6.4-.8.1-.2.2-.5.3-.8,0,0,0,0,0-.2l-.6-1.7-4.4,5.2,1.9,2.2c0,0,.1-.2.2-.3h0Z"/>
            <path class="st5" d="M97.6,62.7l-2.4-2.9c-.2.2-.3.4-.5.5-.2.2-.4.5-.6.7-.2.2-.4.4-.6.6-.2.2-.4.4-.6.6-.2.2-.4.4-.6.6-.2.2-.4.4-.7.6-.2.2-.4.4-.6.6-.2.2-.4.4-.7.6-.2.2-.4.4-.7.5-.2.2-.5.4-.7.5s-.5.3-.7.5c-.2.2-.5.3-.7.5s-.5.3-.7.5c-.2.2-.5.3-.7.5s-.5.3-.8.4c-.2.1-.5.3-.7.4-.3.1-.5.3-.8.4-.2.1-.5.3-.8.4-.3.1-.6.2-.8.4-.3.1-.5.2-.8.3-.3.1-.6.2-.9.3-.3,0-.5.2-.8.3-.3.1-.6.2-.9.3-.3,0-.5.2-.8.3-.2,0-.5.1-.7.2l-1.3,1.6,2.4,2.9h10.3l7.1-5.2s1.7-7.9,1.7-7.9Z"/>
            <path class="st5" d="M77.3,71.3c.2,0,.5-.1.7-.2-.2,0-.5.1-.7.2h0Z"/>
            <path class="st5" d="M88.9,65.7c-.2.2-.5.3-.7.5.2-.2.5-.3.7-.5Z"/>
            <path class="st5" d="M86,67.6c-.2.2-.5.3-.8.4.3-.2.5-.3.8-.4Z"/>
            <path class="st5" d="M87.5,66.7c-.2.2-.5.3-.7.5.2-.2.5-.3.7-.5Z"/>
            <path class="st5" d="M84.5,68.4c-.3.1-.5.3-.8.4.3-.1.5-.3.8-.4Z"/>
            <path class="st5" d="M82.9,69.2c-.3.1-.6.2-.8.4.3-.1.6-.2.8-.4Z"/>
            <path class="st5" d="M91.6,63.5c-.2.2-.4.4-.6.6.2-.2.4-.4.6-.6Z"/>
            <path class="st5" d="M94,61c-.2.2-.4.4-.6.6.2-.2.4-.4.6-.6Z"/>
            <path class="st5" d="M90.3,64.6c-.2.2-.4.4-.7.5.2-.2.4-.3.7-.5Z"/>
            <path class="st5" d="M92.8,62.3c-.2.2-.4.4-.6.6.2-.2.4-.4.6-.6Z"/>
            <path class="st5" d="M79.7,70.6c-.3.1-.6.2-.9.3.3,0,.6-.2.9-.3Z"/>
            <path class="st5" d="M94.6,60.4c.2-.2.3-.4.5-.5h0c-.2.2-.3.4-.5.5Z"/>
            <path class="st5" d="M81.3,69.9c-.3.1-.6.2-.9.3.3-.1.6-.2.9-.3Z"/>
            <path class="st5" d="M88.2,66.2c-.2.2-.5.3-.7.5.2-.2.5-.3.7-.5Z"/>
            <path class="st5" d="M92.2,62.9c-.2.2-.4.4-.7.6.2-.2.4-.4.7-.6Z"/>
            <path class="st5" d="M93.5,61.7c-.2.2-.4.4-.6.6.2-.2.4-.4.6-.6Z"/>
            <path class="st5" d="M94.6,60.4c-.2.2-.4.5-.6.7.2-.2.4-.4.6-.7Z"/>
            <path class="st5" d="M89.6,65.1c-.2.2-.5.4-.7.5.2-.2.5-.3.7-.5Z"/>
            <path class="st5" d="M90.9,64c-.2.2-.4.4-.7.6.2-.2.4-.4.7-.6Z"/>
            <path class="st5" d="M78.8,70.9c-.3,0-.5.2-.8.3.3,0,.5-.2.8-.3Z"/>
            <path class="st5" d="M83.7,68.8c-.2.1-.5.3-.8.4.3-.1.5-.2.8-.4Z"/>
            <path class="st5" d="M85.2,68c-.2.1-.5.3-.7.4.2-.1.5-.3.7-.4Z"/>
            <path class="st5" d="M86.8,67.1c-.2.2-.5.3-.7.5.2-.2.5-.3.7-.5Z"/>
            <path class="st5" d="M80.5,70.3c-.3,0-.5.2-.8.3.3,0,.5-.2.8-.3Z"/>
            <path class="st5" d="M82.1,69.6c-.3.1-.5.2-.8.3.3-.1.5-.2.8-.3Z"/>
            <path class="st5" d="M91.1,55l-13.7,16.4c.2,0,.5-.1.7-.2.3,0,.5-.2.8-.3.3,0,.6-.2.9-.3.3,0,.5-.2.8-.3.3-.1.6-.2.9-.3.3-.1.5-.2.8-.3.3-.1.6-.2.8-.4.3-.1.5-.2.8-.4.3-.1.5-.3.8-.4.2-.1.5-.3.7-.4.3-.2.5-.3.8-.4s.5-.3.7-.5c.2-.2.5-.3.7-.5.2-.2.5-.3.7-.5.2-.2.5-.3.7-.5.2-.2.5-.3.7-.5s.4-.3.7-.5c.2-.2.4-.4.7-.6.2-.2.4-.4.6-.6.2-.2.4-.4.7-.6.2-.2.4-.4.6-.6.2-.2.4-.4.6-.6.2-.2.4-.4.6-.6.2-.2.4-.4.6-.7.2-.2.3-.4.5-.5l-4.1-4.9h0Z"/>
            <polygon class="st5" points="74.7 74.5 75.8 75.9 78.4 75.9 76 73 74.7 74.5"/>
            <polygon class="st5" points="73.6 75.9 75.8 75.9 74.7 74.5 73.6 75.9"/>
            <path class="st5" d="M98.1,60.3l.2-1.1v-.5c0,0,.7-.2.7-.2h.2c0,0-1.6-2-1.6-2,0,.2-.2.3-.3.5-.2.2-.3.5-.5.7-.1.2-.3.4-.4.6l1.7,2h0Z"/>
            <path class="st5" d="M96.8,57.7c.2-.2.3-.5.5-.7-.2.2-.3.5-.5.7Z"/>
            <path class="st5" d="M96.8,57.7c-.1.2-.3.4-.4.6h0c.1-.2.3-.4.4-.6Z"/>
            <path class="st5" d="M97.6,56.5c0,.2-.2.3-.3.5,0-.2.2-.3.3-.5h0Z"/>
            <path class="st5" d="M96.8,57.7c.2-.2.3-.5.5-.7,0-.2.2-.3.3-.5l-1.9-2.2-.7.9-2.1-2.5-.6.7,4,4.8c.1-.2.3-.4.4-.6h0Z"/>
            <polygon class="st5" points="95.9 59.2 98.6 59.2 98.6 59.2 95.9 59.2"/>
            <polygon class="st5" points="96.4 58.2 96.4 58.2 96.4 58.2 96.4 58.2"/>
            <rect class="st5" x="94.4" y="52.7" height="6.3"/>
            <path class="st5" d="M96.4,58.2c0,0,0,.1-.1.2-.2.2-.3.4-.5.7-.2.2-.4.5-.6.7,0,0,0,0,0,0l2.4,2.9.5-2.5-1.7-2h0Z"/>
            <path class="st5" d="M96.3,58.4c-.2.2-.3.4-.5.7.2-.2.3-.4.5-.7Z"/>
            <path class="st5" d="M95.1,59.8h0s0,0,0,0c0,0,0,0,0,0h0Z"/>
            <path class="st5" d="M95.8,59c-.2.2-.4.5-.6.7.2-.2.4-.5.6-.7Z"/>
            <path class="st5" d="M96.4,58.2h0s0,.1-.1.2c0,0,0-.1.1-.2h0Z"/>
            <path class="st5" d="M95.1,59.8s0,0,0,0c.2-.2.4-.5.6-.7.2-.2.3-.4.5-.7,0,0,0-.1.1-.2l-4-4.8-1.3,1.6,4.1,4.9Z"/>
            <path class="st0" d="M103,43.3h0l-4.8-3.2-3.2,8.8-2.1-2.5-1.9,2.2-14.4-17.2-5.2,6.2-9.9-11.8-12.4,14.9-4.8-5.7-11.3,13.5h0l-2.7,3.3-3.4-4.1L0,79.9h133.6l-30.5-36.5h0ZM108.6,75.9h-35l1.1-1.4,1.3-1.6,1.3-1.6h0l13.7-16.4,1.3-1.6.6-.7,2.1,2.5.7-.9,4.4-5.2.6,1.7h0l2.4,6.4-3.9,1.3h-.2c0,0-.6.3-.6.3v.5c0,0-.3,1.1-.3,1.1l-.5,2.5-1.7,7.9,2.7-6.8.8-2.1.6-1.4h.7c0-.1,3.9-.9,3.9-.9l1.6-.3-.6-1.8-2.1-7.2,21.5,25.7h-16.4ZM46.8,75.9h-21.8l8.9-10.7,5.1-6h0l1.7-2,8.5-10.2,1.3-1.6,1.3-1.6,9.8-11.8,4.8,5.7,3.5,4.2,1.6,1.9.3-.4,1.5,3.6-4.7,2.2-.8.6.3.8,3.8,11.2.4,1.1-1.7-11.8,3.6-2,1.3-.6-.5-1.7h0l-1.6-5.4.6-.7,2.7-3.2,2.9,3.5,4.4,5.2,4.5,5.3-15.1,18-1.3,1.6-1,1.2h0l-.3.4-2.4,2.9h-21.6ZM12.2,71.5l14.7-17.5,3.4,4.1h.1c.5.8,1.2,2,1.8,2.9l-.9,1.1-11.5,13.8h-11.2s3.6-4.3,3.6-4.4ZM34.8,52.7h0l9-10.8.5-.6,2.2,2.6-4.1,4.9-5.8,7h0l-3.3,4c-.3-1.3-.6-2.8-1-4.1l2.5-3h0Z"/>
          </g>
          <g>
            <path class="st6" d="M149.6,14.7c.2,0,.4,0,.6,0s.3.3.4.6l3.5,14.2c.6-2.4,1.2-4.8,1.8-7.1.6-2.3,1.2-4.7,1.8-7.1h0c0-.4.4-.7.9-.7h1.3c.5,0,.8.2.9.7l3.6,14.2,3.5-14.2c0-.3.2-.5.4-.6s.4,0,.6,0h1.5c.1,0,.2,0,.4,0,.1,0,.3,0,.4.1s.2.2.3.3,0,.3,0,.5v.4c-.4,1.6-.7,3.2-1.1,4.8-.4,1.6-.8,3.3-1.2,4.9s-.9,3.3-1.3,4.9c-.4,1.6-.8,3.2-1.2,4.8,0,.2-.1.3-.2.4s-.3.2-.6.2h-2.6c-.3,0-.5,0-.6-.2s-.2-.3-.2-.4c-.3-1.2-.6-2.4-.9-3.6s-.6-2.4-.9-3.6l-1.3-5-3,12.1c0,.2-.2.3-.2.4,0,.1-.3.2-.6.2h-2.6c-.3,0-.5,0-.6-.2s-.2-.3-.2-.5l-4.8-19.3s0-.1,0-.2c0,0,0-.2,0-.3,0-.4.1-.7.3-.8s.5-.1.8-.1h1.5,0Z"/>
            <path class="st6" d="M180.9,35.1c0,.2,0,.4-.3.6s-.4.3-.6.3h-1.8c-.3,0-.4,0-.6-.3s-.2-.4-.2-.6V15.5c0-.2,0-.4.2-.6s.4-.3.6-.3h1.8c.3,0,.5,0,.6.3s.3.4.3.6v19.6Z"/>
            <path class="st6" d="M188.5,36c-.5,0-.8-.3-.8-.9V15.5c0-.6.2-.9.8-.9h1.8c.4,0,.6.1.7.3,0,.2.1.5.1.7v16.7h8.8c.5,0,.8,0,.9.2s.2.4.2.9v1.4c0,.3,0,.5-.1.7s-.3.3-.7.3h-11.7Z"/>
            <path class="st6" d="M215.6,14.6c1.2,0,2.3.2,3.3.7s1.9,1,2.7,1.8,1.4,1.7,1.8,2.7c.4,1,.7,2.1.7,3.3v4.4c0,1.2-.2,2.3-.7,3.3-.4,1-1.1,1.9-1.8,2.7s-1.7,1.4-2.7,1.8c-1,.4-2.1.7-3.3.7h-7.5c-.3,0-.5,0-.6-.2-.2-.2-.2-.4-.2-.6V15.5c0-.2,0-.4.2-.6s.4-.3.6-.3h7.5,0ZM210.8,18.2v14.2h4.9c.7,0,1.3-.1,1.9-.4s1.1-.6,1.6-1.1.8-1,1.1-1.6c.3-.6.4-1.2.4-1.9v-4.4c0-.7-.1-1.3-.4-1.9s-.6-1.1-1.1-1.6-1-.8-1.6-1.1-1.2-.4-1.9-.4h-4.9Z"/>
            <path class="st6" d="M245.7,29.3c0,.5,0,1-.2,1.6s-.2,1-.4,1.5-.4.9-.6,1.3c-.3.4-.5.7-.8,1-.6.5-1.3.9-2.1,1.2-.8.2-1.7.4-2.7.4h-2c-1.2,0-2.3-.3-3.2-.8-1-.5-1.8-1.3-2.3-2.2-.4-.6-.6-1.1-.8-1.7-.1-.5-.2-1-.2-1.3,0-.3,0-.6,0-.9h0c0-.2,0-.5.1-.7s.3-.3.7-.3h1.8c.4,0,.7.2.8.6,0,.2,0,.3,0,.4v.5c0,0,0,.2,0,.3s0,.3,0,.4c.1.7.5,1.2,1,1.6.5.4,1.2.6,1.9.6h2c.8,0,1.5-.2,2.1-.6.6-.4,1-1,1.1-1.7,0,0,0-.2,0-.3,0,0,0-.2,0-.3s0-.2,0-.3,0-.3,0-.4c0-.1,0-.3-.1-.4,0-.1-.2-.3-.3-.4-.4-.3-.9-.6-1.7-.8s-1.6-.4-2.6-.6c-.9-.2-1.7-.4-2.5-.7-.8-.3-1.6-.6-2.3-1s-1.2-.9-1.6-1.5c-.4-.6-.6-1.3-.6-2.2v-.4c0-.3,0-.6,0-.9,0-.3,0-.6.2-1h0c.1-.7.4-1.4.8-2s.9-1.2,1.4-1.6,1.2-.8,1.9-1.1,1.4-.4,2.2-.4h2c.8,0,1.6.1,2.3.4s1.4.6,2,1.1c.6.5,1.1,1.2,1.4,2,.3.9.5,1.8.5,2.8,0,.3,0,.5-.1.7s-.3.3-.7.3h-1.8c-.3,0-.4,0-.6-.3s-.2-.4-.3-.6c0-1.1-.3-1.9-.8-2.4s-1.1-.7-2-.7h-2c-.3,0-.7,0-1,.2-.3.1-.6.3-.9.5s-.5.5-.7.8-.3.6-.4.9h0c0,.2,0,.5,0,.9s.2.7.5,1c.4.4.7.6,1.1.7l3.1.9c.8.2,1.5.4,2,.6.6.2,1,.3,1.4.4.4.1.7.3,1,.4.3.2.6.3.9.5.5.4,1,.9,1.3,1.5.3.6.5,1.4.5,2.3h0Z"/>
            <path class="st6" d="M255.5,35.1c0,.2,0,.4-.3.6s-.4.3-.6.3h-1.8c-.3,0-.4,0-.6-.3s-.2-.4-.2-.6V15.5c0-.2,0-.4.2-.6s.4-.3.6-.3h1.8c.3,0,.5,0,.6.3s.3.4.3.6v19.6Z"/>
            <path class="st6" d="M271,18.1v16.8c0,.3,0,.5-.1.7s-.3.3-.7.3h-1.8c-.4,0-.6-.1-.7-.3,0-.2-.1-.5-.1-.7v-16.8h-5.2c-.5,0-.8,0-.9-.2-.1-.1-.2-.4-.2-.8v-1.4c0-.3,0-.5.1-.7s.3-.3.7-.3h14.2c.4,0,.7.1.8.3,0,.2.1.5.1.7v1.4c0,.4,0,.7-.2.8-.1.1-.4.2-.9.2h-5.1,0Z"/>
            <path class="st6" d="M283.7,36c-.3,0-.5,0-.6-.2-.2-.2-.2-.4-.2-.6V15.5c0-.3,0-.5.2-.6s.4-.2.6-.2h12.9c.4,0,.7.1.8.3s.1.5.1.7v1.5c0,.5,0,.8-.2.9s-.4.2-.9.2h-10v4.7h8.9c.3,0,.5,0,.6.3.2.2.2.4.2.6v1.8c0,.3,0,.5-.2.6-.2.2-.4.3-.6.3h-8.9v5.9h10.3c.5,0,.8,0,.9.2.1.1.2.4.2.9v1.4c0,.3,0,.5-.1.7,0,.2-.3.3-.8.3h-13.2Z"/>
            <path class="st6" d="M166.4,59.3c0,1.2-.2,2.4-.7,3.5-.5,1.1-1.2,2-2,2.8s-1.8,1.4-3,1.9c-1.1.5-2.3.7-3.6.7s-2.5-.2-3.6-.7-2.1-1.1-3-1.9-1.5-1.7-2-2.8c-.5-1.1-.7-2.2-.7-3.5v-4.2c0-1.2.3-2.4.8-3.4.5-1.1,1.2-2,2-2.8s1.8-1.4,3-1.9,2.4-.7,3.6-.7,2.5.2,3.6.7,2.1,1.1,3,1.9c.8.8,1.5,1.7,2,2.8.5,1.1.7,2.2.7,3.4v4.2ZM162.8,55.1c0-.8-.2-1.4-.5-2.1s-.7-1.2-1.2-1.7c-.5-.5-1.1-.9-1.8-1.2-.7-.3-1.4-.4-2.2-.4s-1.5.2-2.2.4-1.3.7-1.8,1.2c-.5.5-.9,1.1-1.2,1.7-.3.7-.5,1.4-.5,2.1v4.2c0,.8.2,1.4.5,2.1s.7,1.2,1.2,1.7,1.1.9,1.8,1.2c.7.3,1.4.4,2.2.4s1.5-.1,2.2-.4c.7-.3,1.3-.7,1.8-1.2s.9-1.1,1.2-1.7c.3-.7.5-1.4.5-2.1,0,0,0-4.2,0-4.2Z"/>
            <path class="st6" d="M188.2,61.2c0,.9-.2,1.8-.5,2.6-.4.8-.9,1.5-1.5,2.1-.6.6-1.4,1.1-2.2,1.4-.8.4-1.7.5-2.6.5h-2c-.9,0-1.7-.2-2.5-.5s-1.5-.8-2-1.4-1.1-1.3-1.4-2-.5-1.6-.5-2.5v-14.1c0-.6.3-.9.9-.9h1.8c.4,0,.6.1.7.3,0,.2.1.5.1.7v13.9c0,.4,0,.8.2,1.1.2.4.4.7.6.9.3.3.6.5.9.6.4.2.7.2,1.1.2h2c.5,0,.9,0,1.3-.3.4-.2.8-.4,1.1-.7.3-.3.5-.6.7-1,.2-.4.3-.8.3-1.3v-13.5c0-.3,0-.5.1-.7s.3-.3.8-.3h1.8c.6,0,.9.3.9.9v13.7h0Z"/>
            <path class="st6" d="M203.7,50.1v16.8c0,.3,0,.5-.1.7s-.3.3-.7.3h-1.8c-.4,0-.6-.1-.7-.3,0-.2-.1-.5-.1-.7v-16.8h-5.2c-.5,0-.8,0-.9-.2-.1-.1-.2-.4-.2-.8v-1.4c0-.3,0-.5.1-.7s.3-.3.7-.3h14.2c.4,0,.7.1.8.3,0,.2.1.5.1.7v1.4c0,.4,0,.7-.2.8-.1.1-.4.2-.9.2h-5.1,0Z"/>
            <path class="st6" d="M216.4,67.9c-.2,0-.4,0-.6-.2s-.3-.4-.3-.6v-19.6c0-.3,0-.5.2-.6s.4-.2.6-.2h12.4c.4,0,.7.1.8.3,0,.2.1.5.1.7v1.5c0,.5,0,.8-.2.9-.1.1-.4.2-.9.2h-9.5v5h8.9c.6,0,.9.3.9.9v1.8c0,.6-.3.9-.9.9h-8.9v8.2c0,.3,0,.5-.1.7s-.3.3-.8.3h-1.8Z"/>
            <path class="st6" d="M239.2,67.1c0,.2,0,.4-.3.6-.2.2-.4.3-.6.3h-1.8c-.3,0-.4,0-.6-.3s-.2-.4-.2-.6v-19.6c0-.2,0-.4.2-.6s.4-.3.6-.3h1.8c.3,0,.5,0,.6.3s.3.4.3.6v19.6Z"/>
            <path class="st6" d="M254.7,50.1v16.8c0,.3,0,.5-.1.7s-.3.3-.7.3h-1.8c-.4,0-.6-.1-.7-.3,0-.2-.1-.5-.1-.7v-16.8h-5.2c-.5,0-.8,0-.9-.2-.1-.1-.2-.4-.2-.8v-1.4c0-.3,0-.5.1-.7s.3-.3.7-.3h14.2c.4,0,.7.1.8.3,0,.2.1.5.1.7v1.4c0,.4,0,.7-.2.8-.1.1-.4.2-.9.2h-5.1,0Z"/>
            <path class="st6" d="M275.2,50.1v16.8c0,.3,0,.5-.1.7s-.3.3-.7.3h-1.8c-.4,0-.6-.1-.7-.3,0-.2-.1-.5-.1-.7v-16.8h-5.2c-.5,0-.8,0-.9-.2-.1-.1-.2-.4-.2-.8v-1.4c0-.3,0-.5.1-.7s.3-.3.7-.3h14.2c.4,0,.7.1.8.3,0,.2.1.5.1.7v1.4c0,.4,0,.7-.2.8-.1.1-.4.2-.9.2h-5.1,0Z"/>
            <path class="st6" d="M288,67.9c-.3,0-.5,0-.6-.2-.2-.2-.2-.4-.2-.6v-19.6c0-.3,0-.5.2-.6s.4-.2.6-.2h12.9c.4,0,.7.1.8.3s.1.5.1.7v1.5c0,.5,0,.8-.2.9-.1.1-.4.2-.9.2h-10v4.7h8.9c.3,0,.5,0,.6.3.2.2.2.4.2.6v1.8c0,.3,0,.5-.2.6-.2.2-.4.3-.6.3h-8.9v6h10.3c.5,0,.8,0,.9.2s.2.4.2.9v1.4c0,.3,0,.5-.1.7s-.3.3-.8.3h-13.2Z"/>
            <path class="st6" d="M318.6,46.6c.6,0,1.2.1,1.7.4.5.3,1,.6,1.4,1s.7.9,1,1.4.4,1.1.4,1.7c0,1-.2,1.8-.7,2.5-.5.6-1.1,1.2-1.9,1.7.3.8.6,1.5.8,2.2s.5,1.4.8,2.2c.4,1.2.9,2.4,1.3,3.5s.9,2.4,1.4,3.6c.1.4.1.6,0,.8s-.4.3-.8.3h-2c-.3,0-.5,0-.6-.2s-.2-.3-.3-.5l-3.8-10.2c-.9.5-1.8,1-2.7,1.4s-1.8.9-2.7,1.4v6.9c0,.3,0,.5-.1.7s-.3.3-.7.3h-1.9c-.3,0-.4,0-.6-.3s-.2-.4-.2-.6v-19.6c0-.2,0-.4.2-.6s.4-.3.6-.3h9.5ZM311.9,50.2v5.8c.4-.2.8-.4,1.2-.6s1-.5,1.5-.8,1-.5,1.6-.8,1-.5,1.4-.8c.4-.3.8-.5,1.1-.7.3-.2.5-.4.6-.5h0c.1-.1.2-.3.2-.5s-.1-.5-.3-.7c-.2-.2-.4-.3-.8-.3h-6.5,0Z"/>
            <path class="st6" d="M345.5,61.3c0,.5,0,1-.2,1.6-.1.5-.2,1-.4,1.5-.2.5-.4.9-.6,1.3-.3.4-.5.7-.8,1-.6.5-1.3.9-2.1,1.2s-1.7.4-2.7.4h-2c-1.2,0-2.3-.3-3.2-.8-1-.5-1.8-1.3-2.3-2.2-.4-.6-.6-1.1-.8-1.7-.1-.5-.2-1-.2-1.3,0-.3,0-.6,0-.9h0c0-.2,0-.5.1-.7s.3-.3.7-.3h1.8c.4,0,.7.2.8.6,0,.2,0,.3,0,.4v.5c0,0,0,.2,0,.3s0,.3,0,.4c.1.7.5,1.2,1,1.6.5.4,1.2.6,1.9.6h2c.8,0,1.5-.2,2.1-.6.6-.4,1-1,1.1-1.7,0,0,0-.2,0-.3,0,0,0-.2,0-.3s0-.2,0-.3,0-.3,0-.4c0-.1,0-.3-.1-.4,0-.1-.2-.3-.3-.4-.4-.3-.9-.6-1.7-.8s-1.6-.4-2.6-.6c-.9-.2-1.7-.4-2.5-.7-.8-.3-1.6-.6-2.3-1s-1.2-.9-1.6-1.5c-.4-.6-.6-1.3-.6-2.2v-.4c0-.3,0-.6,0-.9,0-.3,0-.6.2-1h0c.1-.7.4-1.4.8-2s.9-1.2,1.4-1.6,1.2-.8,1.9-1.1,1.4-.4,2.2-.4h2c.8,0,1.6.1,2.3.4s1.4.6,2,1.1c.6.5,1.1,1.2,1.4,2,.3.9.5,1.8.5,2.8,0,.3,0,.5-.1.7s-.3.3-.7.3h-1.8c-.3,0-.4,0-.6-.3s-.2-.4-.3-.6c0-1.1-.3-1.9-.8-2.4s-1.1-.7-2-.7h-2c-.3,0-.7,0-1,.2-.3.1-.6.3-.9.5-.3.2-.5.5-.7.8s-.3.6-.4.9h0c0,.2,0,.5,0,.9s.2.7.5,1c.4.4.7.6,1.1.7l3.1.9c.8.2,1.5.4,2,.6.6.2,1,.3,1.4.4.4.1.7.3,1,.4.3.2.6.3.9.5.5.4,1,.9,1.3,1.5.3.6.5,1.4.5,2.3h0Z"/>
          </g>
        </g>
      </g>
    </g>
  </g>
</svg>