<?xml version="1.0" encoding="UTF-8"?>
<svg xmlns="http://www.w3.org/2000/svg" viewBox="0 0 303.11 80.58">
  <defs>
    <style>
      .cls-1 {
        fill: #5319e0;
      }

      .cls-2 {
        mix-blend-mode: multiply;
        opacity: .5;
      }

      .cls-2, .cls-3 {
        fill: #b3a4e0;
      }

      .cls-4 {
        fill: #c98659;
      }

      .cls-5 {
        isolation: isolate;
      }

      .cls-6 {
        fill: #ececd9;
      }

      .cls-7 {
        fill: #ba5200;
      }
    </style>
  </defs>
  <g class="cls-5">
    <g id="Layer_2" data-name="Layer 2">
      <g id="Layer_3" data-name="Layer 3">
        <g>
          <g>
            <path class="cls-7" d="M81.91,29.76c2.87,3.02,5.93,6.38,9.64,10.59.39.45.79.9,1.19,1.36l1.33.75,7.79-7.13,1.79,2.07c0-.34.03-.68.03-1.03,0-2.33-.23-4.6-.64-6.8l-21.79-.52.67.7Z"/>
            <path class="cls-7" d="M61.56,18.78l4.25,4.86c1.98,2.26,3.73,4.35,5.34,6.36l4.61-6.72,5.42,5.7,21.1-2.58c-1.41-4.97-3.85-9.51-7.08-13.37l-31.53-.35,29.1-2.27c-6.56-6.44-15.55-10.42-25.47-10.42-14.91,0-27.71,8.97-33.33,21.81l22.75,2.48,4.85-5.5Z"/>
            <path class="cls-7" d="M48.96,33.08l6.86-7.78-23.31.41c-1.03,3.37-1.59,6.95-1.59,10.67,0,2.31.23,4.57.64,6.76l11.97-15.06,5.43,5Z"/>
            <path class="cls-7" d="M33.03,48.59h0"/>
            <path class="cls-4" d="M81.25,29.06l21.79.52c-.2-1.07-.46-2.13-.75-3.17l-21.1,2.58.07.07Z"/>
            <path class="cls-4" d="M95.2,13.04c-.77-.91-1.58-1.79-2.43-2.62l-29.1,2.27,31.53.35Z"/>
            <path class="cls-4" d="M56.72,24.29l-22.75-2.48c-.56,1.27-1.04,2.57-1.45,3.91l23.31-.41.9-1.02Z"/>
            <polyline class="cls-4" points="56.72 24.29 55.82 25.3 64.61 25.15"/>
            <polygon class="cls-3" points="26.34 61.17 24.88 64.33 22.49 63.09 23.94 64.84 12.2 71.53 8.56 75.89 19.78 75.89 31.29 62.12 26.34 61.17"/>
            <polygon class="cls-2" points="26.34 61.17 24.88 64.33 22.49 63.09 23.94 64.84 12.2 71.53 8.56 75.89 19.78 75.89 31.29 62.12 26.34 61.17"/>
            <polygon class="cls-3" points="46.5 43.93 44.32 41.32 43.84 41.9 42.37 48.86 46.5 43.93"/>
            <polygon class="cls-2" points="46.5 43.93 44.32 41.32 43.84 41.9 42.37 48.86 46.5 43.93"/>
            <path class="cls-6" d="M22.49,63.09l2.4,1.24,1.46-3.15,4.96.94.93-1.11c-.63-.94-1.32-2.13-1.82-3.03l-.11.14-3.43-4.11-14.66,17.53,11.74-6.69-1.46-1.76Z"/>
            <path class="cls-6" d="M36.56,55.82s-.03-.05-.04-.07c-.15-.24-.31-.48-.45-.73-.14-.23-.26-.46-.39-.69-.14-.25-.29-.5-.43-.76-.12-.23-.23-.46-.35-.69-.03-.06-.06-.12-.09-.18l-2.49,2.97c.32,1.23.68,2.76.95,4.08l3.3-3.95Z"/>
            <path class="cls-6" d="M36.51,55.75s.03.05.04.07h0s-.03-.05-.04-.07Z"/>
            <path class="cls-6" d="M35.24,53.58c-.12-.23-.23-.46-.35-.69.12.23.23.46.35.69Z"/>
            <path class="cls-6" d="M36.06,55.03c-.14-.23-.26-.46-.39-.69.13.23.26.46.39.69Z"/>
            <path class="cls-6" d="M35.67,54.34c-.14-.25-.29-.5-.43-.76.14.26.28.51.43.76Z"/>
            <path class="cls-6" d="M36.51,55.75c-.15-.24-.31-.48-.45-.73.15.25.3.49.45.73Z"/>
            <path class="cls-6" d="M34.8,52.71c.03.06.06.12.09.18-.03-.06-.06-.12-.09-.18h0Z"/>
            <path class="cls-6" d="M42.37,48.86l1.46-6.96-9.04,10.82c.03.06.06.12.09.18.12.23.23.46.35.69.14.26.28.51.43.76.13.23.26.46.39.69.15.25.3.49.45.73.01.02.03.04.04.07l5.82-6.96Z"/>
            <polygon class="cls-3" points="60.65 49.28 66.77 57.49 63.18 57.64 64.92 59.72 66.77 60.07 65.54 60.47 69.89 65.66 82.17 53.96 83.97 46.48 79.58 41.23 79.94 44.46 82.85 47.89 74.12 52.17 72.27 63.09 71.9 62.01 66.77 49.92 70.54 44.92 69.84 42.08 66.35 37.91 66.77 43.45 60.65 49.28"/>
            <path class="cls-3" d="M58.64,71.71c-.23-.06-.45-.11-.68-.17-.34-.09-.67-.19-1.01-.29-.21-.06-.42-.12-.63-.19-.37-.12-.74-.24-1.1-.37-.16-.06-.33-.11-.5-.17-.52-.19-1.04-.4-1.55-.61-.13-.05-.25-.11-.37-.17-.39-.17-.77-.34-1.15-.52-.2-.09-.39-.19-.58-.29-.3-.15-.6-.3-.9-.46-.21-.11-.42-.23-.63-.35-.21-.12-.41-.23-.62-.35l-2.13,8.11h1.35l11.06-4.03c-.19-.04-.37-.09-.56-.14Z"/>
            <path class="cls-3" d="M56.32,71.07c-.37-.12-.74-.24-1.1-.37.37.13.73.26,1.1.37Z"/>
            <path class="cls-3" d="M57.96,71.54c-.34-.09-.67-.19-1.01-.29.33.1.67.2,1.01.29Z"/>
            <path class="cls-3" d="M48.92,67.78c.2.12.41.23.62.35-.21-.12-.41-.23-.62-.35h0Z"/>
            <path class="cls-3" d="M58.64,71.71c.19.05.37.1.56.14h.02c-.19-.05-.38-.09-.57-.14Z"/>
            <path class="cls-3" d="M54.72,70.53c-.52-.19-1.04-.4-1.55-.61.51.22,1.03.42,1.55.61Z"/>
            <path class="cls-3" d="M51.07,68.94c-.3-.15-.6-.3-.9-.46.3.16.6.31.9.46Z"/>
            <path class="cls-3" d="M52.8,69.75c-.39-.17-.77-.34-1.15-.52.38.18.76.35,1.15.52Z"/>
            <path class="cls-3" d="M51.65,69.23c-.2-.09-.39-.19-.58-.29.19.1.39.2.58.29Z"/>
            <path class="cls-3" d="M53.17,69.92c-.13-.05-.25-.11-.37-.17.12.05.25.11.37.17Z"/>
            <path class="cls-3" d="M55.22,70.7c-.16-.06-.33-.11-.5-.17.16.06.33.11.5.17Z"/>
            <path class="cls-3" d="M58.64,71.71c-.23-.06-.45-.11-.68-.17.23.06.45.11.68.17Z"/>
            <path class="cls-3" d="M56.95,71.26c-.21-.06-.42-.12-.63-.19.21.07.42.13.63.19Z"/>
            <path class="cls-3" d="M50.17,68.47c-.21-.11-.42-.23-.63-.35.21.12.42.23.63.35Z"/>
            <path class="cls-3" d="M65.98,69.38l1-.95-5.55-6.64-11.96,3.86-.56,2.12c.2.12.41.24.62.35.21.12.42.23.63.35.3.16.6.31.9.46.19.1.39.2.58.29.38.18.76.35,1.15.52.12.05.25.11.37.17.51.22,1.03.42,1.55.61.16.06.33.11.5.17.37.13.73.26,1.1.37.21.07.42.13.63.19.33.1.67.2,1.01.29.23.06.45.11.68.17.19.05.38.09.57.13l6.77-2.47Z"/>
            <polygon class="cls-3" points="55.64 57.97 58.72 58.55 58.15 57.86 55.64 57.97"/>
            <polygon class="cls-3" points="64.92 59.72 63.18 57.64 60.66 57.75 61.82 59.13 64.92 59.72"/>
            <polygon class="cls-3" points="68.44 67.05 69.89 65.66 65.54 60.47 63.49 61.13 68.44 67.05"/>
            <polygon class="cls-3" points="60.66 57.75 58.15 57.86 58.72 58.55 61.82 59.13 60.66 57.75"/>
            <polygon class="cls-3" points="63.49 61.13 61.44 61.79 66.98 68.43 68.44 67.05 63.49 61.13"/>
            <polygon class="cls-3" points="66.77 49.92 71.9 62.01 68.07 50.78 67.82 50.03 68.65 49.43 73.3 47.21 71.78 43.58 71.44 44 69.84 42.08 70.54 44.92 66.77 49.92"/>
            <polygon class="cls-2" points="66.77 49.92 71.9 62.01 68.07 50.78 67.82 50.03 68.65 49.43 73.3 47.21 71.78 43.58 71.44 44 69.84 42.08 70.54 44.92 66.77 49.92"/>
            <polygon class="cls-3" points="69.89 65.66 73.38 69.85 88.44 51.83 83.97 46.48 82.17 53.96 69.89 65.66"/>
            <polygon class="cls-2" points="69.89 65.66 73.38 69.85 88.44 51.83 83.97 46.48 82.17 53.96 69.89 65.66"/>
            <path class="cls-3" d="M70.48,72.61c-.24.02-.48.04-.72.05-.2.01-.4.03-.6.04-.62.03-1.23.05-1.86.05h0c-.59,0-1.18-.02-1.77-.04-.19,0-.38-.03-.58-.04-.39-.03-.79-.05-1.18-.09-.23-.02-.45-.05-.68-.08-.35-.04-.71-.08-1.06-.13-.24-.03-.47-.07-.7-.11-.34-.06-.67-.12-1.01-.18-.23-.05-.47-.09-.7-.14-.14-.03-.29-.06-.43-.09l-11.06,4.03h20.2l2.44-2.92-.29-.35Z"/>
            <path class="cls-2" d="M70.48,72.61c-.24.02-.48.04-.72.05-.2.01-.4.03-.6.04-.62.03-1.23.05-1.86.05h0c-.59,0-1.18-.02-1.77-.04-.19,0-.38-.03-.58-.04-.39-.03-.79-.05-1.18-.09-.23-.02-.45-.05-.68-.08-.35-.04-.71-.08-1.06-.13-.24-.03-.47-.07-.7-.11-.34-.06-.67-.12-1.01-.18-.23-.05-.47-.09-.7-.14-.14-.03-.29-.06-.43-.09l-11.06,4.03h20.2l2.44-2.92-.29-.35Z"/>
            <path class="cls-3" d="M69.76,72.67c.24-.02.48-.03.72-.05h0c-.24.02-.48.04-.72.05Z"/>
            <path class="cls-2" d="M69.76,72.67c.24-.02.48-.03.72-.05h0c-.24.02-.48.04-.72.05Z"/>
            <path class="cls-3" d="M67.3,72.76c-.59,0-1.18-.02-1.77-.04.59.03,1.18.04,1.77.04Z"/>
            <path class="cls-2" d="M67.3,72.76c-.59,0-1.18-.02-1.77-.04.59.03,1.18.04,1.77.04Z"/>
            <path class="cls-3" d="M61.34,72.27c-.34-.06-.67-.12-1.01-.18.33.06.67.12,1.01.18Z"/>
            <path class="cls-2" d="M61.34,72.27c-.34-.06-.67-.12-1.01-.18.33.06.67.12,1.01.18Z"/>
            <path class="cls-3" d="M64.95,72.68c-.39-.03-.79-.05-1.18-.09.39.04.78.06,1.18.09Z"/>
            <path class="cls-2" d="M64.95,72.68c-.39-.03-.79-.05-1.18-.09.39.04.78.06,1.18.09Z"/>
            <path class="cls-3" d="M59.2,71.85c.14.03.29.06.43.09-.14-.03-.28-.06-.42-.1h-.02Z"/>
            <path class="cls-2" d="M59.2,71.85c.14.03.29.06.43.09-.14-.03-.28-.06-.42-.1h-.02Z"/>
            <path class="cls-3" d="M67.3,72.76c.62,0,1.24-.02,1.86-.05-.62.03-1.23.05-1.86.05h0Z"/>
            <path class="cls-2" d="M67.3,72.76c.62,0,1.24-.02,1.86-.05-.62.03-1.23.05-1.86.05h0Z"/>
            <path class="cls-3" d="M63.1,72.51c-.35-.04-.71-.08-1.06-.13.35.05.7.09,1.06.13Z"/>
            <path class="cls-2" d="M63.1,72.51c-.35-.04-.71-.08-1.06-.13.35.05.7.09,1.06.13Z"/>
            <path class="cls-3" d="M69.76,72.67c-.2.01-.4.03-.6.04.2-.01.4-.03.6-.04Z"/>
            <path class="cls-2" d="M69.76,72.67c-.2.01-.4.03-.6.04.2-.01.4-.03.6-.04Z"/>
            <path class="cls-3" d="M65.53,72.72c-.19,0-.38-.03-.58-.04.19.01.38.03.58.04Z"/>
            <path class="cls-2" d="M65.53,72.72c-.19,0-.38-.03-.58-.04.19.01.38.03.58.04Z"/>
            <path class="cls-3" d="M62.04,72.38c-.24-.03-.47-.07-.7-.11.23.04.47.08.7.11Z"/>
            <path class="cls-2" d="M62.04,72.38c-.24-.03-.47-.07-.7-.11.23.04.47.08.7.11Z"/>
            <path class="cls-3" d="M60.33,72.09c-.23-.05-.47-.09-.7-.14.23.05.47.1.7.14Z"/>
            <path class="cls-2" d="M60.33,72.09c-.23-.05-.47-.09-.7-.14.23.05.47.1.7.14Z"/>
            <path class="cls-3" d="M63.78,72.59c-.23-.02-.45-.05-.68-.08.23.03.45.05.68.08Z"/>
            <path class="cls-2" d="M63.78,72.59c-.23-.02-.45-.05-.68-.08.23.03.45.05.68.08Z"/>
            <path class="cls-3" d="M66.98,68.43l-1,.95-6.77,2.47c.14.03.28.07.42.1.23.05.47.1.7.14.33.06.67.12,1.01.18.23.04.47.08.7.11.35.05.7.09,1.06.13.23.03.45.05.68.08.39.04.78.06,1.18.09.19.01.38.03.58.04.59.03,1.18.04,1.77.04h0c.62,0,1.24-.02,1.86-.05.2-.01.4-.03.6-.04.24-.02.48-.03.72-.05l-3.5-4.19Z"/>
            <path class="cls-2" d="M66.98,68.43l-1,.95-6.77,2.47c.14.03.28.07.42.1.23.05.47.1.7.14.33.06.67.12,1.01.18.23.04.47.08.7.11.35.05.7.09,1.06.13.23.03.45.05.68.08.39.04.78.06,1.18.09.19.01.38.03.58.04.59.03,1.18.04,1.77.04h0c.62,0,1.24-.02,1.86-.05.2-.01.4-.03.6-.04.24-.02.48-.03.72-.05l-3.5-4.19Z"/>
            <polygon class="cls-3" points="72.08 71.41 73.38 69.85 69.89 65.66 68.44 67.05 72.08 71.41"/>
            <polygon class="cls-2" points="72.08 71.41 73.38 69.85 69.89 65.66 68.44 67.05 72.08 71.41"/>
            <path class="cls-3" d="M70.99,72.57c-.17.02-.34.02-.5.04l.29.35.34-.4s-.08.01-.13.01Z"/>
            <path class="cls-2" d="M70.99,72.57c-.17.02-.34.02-.5.04l.29.35.34-.4s-.08.01-.13.01Z"/>
            <path class="cls-3" d="M70.48,72.61h0c.17-.01.34-.02.5-.04-.17.02-.34.02-.5.04Z"/>
            <path class="cls-2" d="M70.48,72.61h0c.17-.01.34-.02.5-.04-.17.02-.34.02-.5.04Z"/>
            <path class="cls-3" d="M70.99,72.57s.08-.01.13-.01h0s-.08.01-.13.01Z"/>
            <path class="cls-2" d="M70.99,72.57s.08-.01.13-.01h0s-.08.01-.13.01Z"/>
            <path class="cls-3" d="M72.08,71.41l-3.64-4.36-1.45,1.38,3.5,4.19c.17-.01.34-.02.5-.04.04,0,.08-.01.13-.02l.96-1.15Z"/>
            <path class="cls-2" d="M72.08,71.41l-3.64-4.36-1.45,1.38,3.5,4.19c.17-.01.34-.02.5-.04.04,0,.08-.01.13-.02l.96-1.15Z"/>
            <polygon class="cls-6" points="75.03 46.93 75.53 48.63 74.22 49.24 70.61 51.23 72.27 63.09 74.12 52.17 82.85 47.89 79.94 44.46 79.58 41.23 76.66 37.74 74.02 40.91 75.43 46.65 75.03 46.93"/>
            <polygon class="cls-6" points="75.03 46.93 75.03 46.93 75.43 46.65 74.02 40.91 73.46 41.57 75.03 46.93"/>
            <polygon class="cls-6" points="66.77 57.49 60.65 49.28 66.77 43.45 66.35 37.91 61.55 32.17 51.71 43.93 63.18 57.64 66.77 57.49"/>
            <polygon class="cls-6" points="66.77 60.07 64.92 59.72 65.54 60.47 66.77 60.07"/>
            <path class="cls-6" d="M48.72,67.66c-.21-.13-.42-.26-.64-.39-.26-.16-.52-.33-.77-.5-.21-.14-.42-.28-.63-.42-.25-.17-.5-.35-.74-.53-.2-.15-.41-.29-.6-.44-.25-.19-.49-.38-.73-.57-.19-.15-.38-.3-.57-.46-.26-.22-.51-.44-.77-.67-.16-.14-.32-.28-.48-.42-.39-.36-.77-.72-1.15-1.1-.17-.17-.33-.35-.5-.52-.21-.22-.43-.44-.63-.67-.18-.2-.35-.4-.53-.6-.02-.02-.03-.04-.05-.06l-5.45,9.23-.57-4.32-8.9,10.65h21.79l2.13-8.11c-.07-.04-.13-.08-.2-.12Z"/>
            <path class="cls-6" d="M46.69,66.35c-.25-.17-.5-.35-.74-.53.25.18.49.36.74.53Z"/>
            <path class="cls-6" d="M42.79,63.26c-.39-.36-.77-.72-1.15-1.1.38.37.76.74,1.15,1.1Z"/>
            <path class="cls-6" d="M48.08,67.27c-.26-.16-.52-.33-.77-.5.26.17.51.33.77.5Z"/>
            <path class="cls-6" d="M48.72,67.66c.07.04.13.08.2.12h0c-.07-.05-.14-.08-.2-.12Z"/>
            <path class="cls-6" d="M44.04,64.35c-.26-.22-.51-.44-.77-.67.25.22.51.45.77.67Z"/>
            <path class="cls-6" d="M39.92,60.33s.03.04.05.06c-.02-.02-.03-.04-.05-.06h0Z"/>
            <path class="cls-6" d="M41.14,61.65c-.21-.22-.43-.44-.63-.67.21.23.42.45.63.67Z"/>
            <path class="cls-6" d="M45.34,65.38c-.25-.19-.49-.38-.73-.57.24.19.48.39.73.57Z"/>
            <path class="cls-6" d="M48.72,67.66c-.21-.13-.42-.26-.64-.39.21.13.42.26.64.39Z"/>
            <path class="cls-6" d="M44.61,64.8c-.19-.15-.38-.3-.57-.46.19.16.38.3.57.46Z"/>
            <path class="cls-6" d="M47.31,66.77c-.21-.14-.42-.28-.63-.42.21.14.42.28.63.42Z"/>
            <path class="cls-6" d="M43.27,63.68c-.16-.14-.32-.28-.48-.42.16.14.32.28.48.42Z"/>
            <path class="cls-6" d="M45.94,65.82c-.2-.15-.41-.29-.6-.44.2.15.4.3.6.44Z"/>
            <path class="cls-6" d="M40.51,60.98c-.18-.2-.35-.4-.53-.6.18.2.35.4.53.6Z"/>
            <path class="cls-6" d="M41.64,62.17c-.17-.17-.34-.35-.5-.52.17.17.33.35.5.52Z"/>
            <path class="cls-6" d="M49.48,65.65l11.96-3.86-2.71-3.24-3.08-.58,2.5-.11-9.04-10.81-8.48,10.15-.64,3.02-.06.11s.03.04.05.06c.18.2.35.4.53.6.21.23.42.45.63.67.17.17.33.35.5.52.38.37.76.74,1.15,1.1.16.14.32.28.48.42.25.22.51.45.77.67.19.16.38.3.57.46.24.19.48.39.73.57.2.15.4.3.6.44.25.18.49.36.74.53.21.14.42.28.63.42.26.17.51.33.77.5.21.13.42.26.64.39.07.04.14.08.2.12l.56-2.12Z"/>
            <path class="cls-6" d="M38.96,59.18l-5.06,6.05.57,4.32,5.45-9.23c-.17-.19-.34-.38-.5-.58-.16-.19-.31-.37-.46-.56Z"/>
            <path class="cls-6" d="M39.42,59.75c.16.2.33.39.5.58h0c-.17-.19-.34-.38-.5-.58Z"/>
            <path class="cls-6" d="M38.96,59.18c.15.19.31.38.46.56-.16-.19-.31-.38-.46-.57h0Z"/>
            <path class="cls-6" d="M39.42,59.75c.16.2.33.39.5.58l.06-.11.64-3.02-1.66,1.99c.15.19.3.38.46.57Z"/>
            <polygon class="cls-6" points="63.18 57.64 51.71 43.93 50.41 45.49 60.66 57.75 63.18 57.64"/>
            <polygon class="cls-6" points="63.49 61.13 65.54 60.47 64.92 59.72 61.82 59.13 63.49 61.13"/>
            <polygon class="cls-6" points="61.82 59.13 58.72 58.55 61.44 61.79 63.49 61.13 61.82 59.13"/>
            <polygon class="cls-6" points="60.66 57.75 50.41 45.49 49.11 47.05 58.15 57.86 60.66 57.75"/>
            <polygon class="cls-3" points="100.68 60.23 107.43 68.31 108.37 67.32 102.94 62.54 106.23 59.19 104.6 59.45 100.68 60.23"/>
            <polygon class="cls-3" points="98.54 63.91 95.82 70.66 88.74 75.89 100.25 75.89 104.66 71.23 98.54 63.91"/>
            <polygon class="cls-3" points="99.97 60.37 99.39 61.81 101.5 64.33 106.05 69.77 107.43 68.31 100.68 60.23 99.97 60.37"/>
            <polygon class="cls-3" points="106.05 69.77 106.05 69.77 101.5 64.33 106.05 69.77"/>
            <polygon class="cls-3" points="101.5 64.33 99.39 61.81 99.39 61.81 101.5 64.33"/>
            <polygon class="cls-3" points="99.39 61.81 98.54 63.91 104.66 71.23 106.05 69.77 101.5 64.33 99.39 61.81"/>
            <polygon class="cls-3" points="106.23 59.19 102.94 62.54 108.37 67.32 107.43 68.31 113.77 75.89 124.99 75.89 103.53 50.22 105.6 57.39 106.23 59.19"/>
            <polygon class="cls-2" points="106.23 59.19 102.94 62.54 108.37 67.32 107.43 68.31 113.77 75.89 124.99 75.89 103.53 50.22 105.6 57.39 106.23 59.19"/>
            <polygon class="cls-3" points="100.98 75.89 108.55 75.89 104.89 71.5 100.98 75.89"/>
            <polygon class="cls-2" points="100.98 75.89 108.55 75.89 104.89 71.5 100.98 75.89"/>
            <polygon class="cls-3" points="104.66 71.23 100.25 75.89 100.98 75.89 104.89 71.5 104.66 71.23"/>
            <polygon class="cls-2" points="104.66 71.23 100.25 75.89 100.98 75.89 104.89 71.5 104.66 71.23"/>
            <polygon class="cls-3" points="106.05 69.77 111.16 75.89 113.77 75.89 107.43 68.31 106.05 69.77"/>
            <polygon class="cls-2" points="106.05 69.77 111.16 75.89 113.77 75.89 107.43 68.31 106.05 69.77"/>
            <polygon class="cls-3" points="106.05 69.77 106.23 69.99 104.89 71.5 108.55 75.89 111.16 75.89 106.05 69.77 106.05 69.77"/>
            <polygon class="cls-2" points="106.05 69.77 106.23 69.99 104.89 71.5 108.55 75.89 111.16 75.89 106.05 69.77 106.05 69.77"/>
            <polygon class="cls-3" points="104.89 71.5 106.23 69.99 106.05 69.77 104.66 71.23 104.89 71.5"/>
            <polygon class="cls-2" points="104.89 71.5 106.23 69.99 106.05 69.77 104.66 71.23 104.89 71.5"/>
            <path class="cls-6" d="M99.21,58.47l3.93-1.34-2.41-6.37s-.04.09-.06.14c-.11.25-.22.5-.34.75-.13.28-.26.56-.4.84-.12.24-.25.49-.37.73-.14.27-.29.55-.44.82-.13.24-.27.47-.41.71-.16.26-.31.53-.47.79-.14.23-.29.46-.44.69-.07.1-.13.21-.2.31l1.62,1.94Z"/>
            <path class="cls-6" d="M98.7,54.74c.14-.24.28-.47.41-.71-.13.24-.27.47-.41.71Z"/>
            <path class="cls-6" d="M100.32,51.65c.11-.25.23-.5.34-.75-.11.25-.22.5-.34.75Z"/>
            <path class="cls-6" d="M97.79,56.22c.15-.23.3-.46.44-.69-.14.23-.29.46-.44.69Z"/>
            <path class="cls-6" d="M99.55,53.22c.13-.24.25-.48.37-.73-.12.24-.25.49-.37.73Z"/>
            <path class="cls-6" d="M99.11,54.03c.15-.27.29-.54.44-.82-.14.27-.29.55-.44.82Z"/>
            <path class="cls-6" d="M99.92,52.49c.14-.28.27-.56.4-.84-.13.28-.26.56-.4.84Z"/>
            <path class="cls-6" d="M100.72,50.75s-.04.1-.06.15c.02-.05.04-.09.06-.14h0Z"/>
            <path class="cls-6" d="M97.79,56.22c-.07.1-.14.2-.2.3h0c.07-.1.13-.2.2-.3Z"/>
            <path class="cls-6" d="M98.23,55.53c.16-.26.32-.52.47-.79-.15.26-.31.53-.47.79Z"/>
            <path class="cls-6" d="M97.79,56.22c.15-.23.3-.46.44-.69.16-.26.32-.52.47-.79.14-.24.28-.47.41-.71.15-.27.29-.54.44-.82.13-.24.25-.48.37-.73.14-.28.27-.56.4-.84.11-.25.23-.5.34-.75.02-.05.04-.1.06-.15l-.64-1.69-4.37,5.22,1.87,2.24c.07-.1.14-.2.2-.3Z"/>
            <path class="cls-6" d="M97.56,62.73l-2.44-2.91c-.16.19-.32.37-.48.55-.2.22-.39.45-.59.67-.19.21-.39.41-.58.61-.21.21-.41.43-.62.63-.2.2-.41.39-.61.58-.22.2-.43.41-.65.6-.21.19-.43.37-.64.56-.22.19-.44.38-.67.57-.22.18-.45.36-.68.53-.23.18-.46.36-.69.53-.23.17-.47.34-.7.5-.24.17-.47.34-.71.5-.24.16-.49.32-.74.47-.24.15-.48.31-.73.46-.25.15-.51.3-.77.44-.25.14-.49.28-.74.42-.26.14-.53.27-.8.41-.25.13-.5.26-.76.38-.27.13-.55.25-.83.37-.26.11-.51.23-.77.34-.28.12-.57.23-.86.34-.26.1-.52.21-.78.3-.29.11-.59.2-.89.3-.26.09-.52.18-.79.26-.23.07-.46.13-.69.2l-1.35,1.62,2.44,2.92h10.31l7.08-5.22,1.73-7.93Z"/>
            <path class="cls-6" d="M77.34,71.35c.23-.07.46-.13.69-.2-.23.07-.46.13-.68.19h0Z"/>
            <path class="cls-6" d="M88.9,65.65c-.23.17-.47.34-.7.5.24-.17.47-.33.7-.5Z"/>
            <path class="cls-6" d="M86.02,67.58c-.25.15-.51.3-.77.44.26-.15.52-.29.77-.44Z"/>
            <path class="cls-6" d="M87.48,66.65c-.24.16-.49.32-.74.47.25-.16.49-.31.74-.47Z"/>
            <path class="cls-6" d="M84.5,68.44c-.26.14-.53.27-.8.41.27-.14.54-.27.8-.41Z"/>
            <path class="cls-6" d="M82.95,69.23c-.27.13-.55.25-.83.37.28-.12.56-.24.83-.37Z"/>
            <path class="cls-6" d="M91.58,63.46c-.21.19-.43.37-.64.56.21-.18.43-.37.64-.56Z"/>
            <path class="cls-6" d="M94.04,61.04c-.19.21-.39.41-.58.61.19-.2.39-.4.58-.61Z"/>
            <path class="cls-6" d="M90.27,64.59c-.22.18-.45.36-.68.53.23-.18.45-.35.68-.53Z"/>
            <path class="cls-6" d="M92.84,62.28c-.2.2-.41.39-.61.58.21-.19.41-.39.61-.58Z"/>
            <path class="cls-6" d="M79.71,70.59c-.29.11-.59.2-.89.3.3-.1.59-.19.89-.3Z"/>
            <path class="cls-6" d="M94.64,60.37c.16-.18.32-.36.48-.55h0c-.16.18-.32.37-.48.55Z"/>
            <path class="cls-6" d="M81.35,69.95c-.28.12-.57.23-.86.34.29-.11.57-.22.86-.34Z"/>
            <path class="cls-6" d="M88.2,66.15c-.24.17-.47.34-.71.5.24-.16.48-.33.71-.5Z"/>
            <path class="cls-6" d="M92.23,62.86c-.21.2-.43.41-.65.6.22-.2.43-.4.65-.6Z"/>
            <path class="cls-6" d="M93.46,61.65c-.21.21-.41.43-.62.63.21-.21.41-.42.62-.63Z"/>
            <path class="cls-6" d="M94.64,60.37c-.2.22-.39.45-.59.67.2-.22.4-.44.59-.67Z"/>
            <path class="cls-6" d="M89.59,65.12c-.23.18-.46.36-.69.53.23-.17.46-.35.69-.53Z"/>
            <path class="cls-6" d="M90.94,64.02c-.22.19-.44.38-.67.57.23-.19.45-.38.67-.57Z"/>
            <path class="cls-6" d="M78.82,70.89c-.26.09-.52.18-.79.26.27-.08.53-.17.79-.26Z"/>
            <path class="cls-6" d="M83.71,68.85c-.25.13-.5.26-.76.38.26-.12.51-.25.76-.38Z"/>
            <path class="cls-6" d="M85.25,68.02c-.25.14-.49.28-.74.42.25-.14.5-.28.74-.42Z"/>
            <path class="cls-6" d="M86.75,67.12c-.24.15-.48.31-.73.46.25-.15.49-.3.73-.46Z"/>
            <path class="cls-6" d="M80.49,70.28c-.26.1-.52.21-.78.3.26-.1.52-.2.78-.3Z"/>
            <path class="cls-6" d="M82.12,69.6c-.26.11-.51.23-.77.34.26-.11.51-.23.77-.34Z"/>
            <path class="cls-6" d="M91.05,54.95l-13.71,16.39c.23-.07.46-.12.68-.19.27-.08.53-.17.79-.26.3-.1.59-.19.89-.3.26-.1.52-.2.78-.3.29-.11.57-.22.86-.34.26-.11.51-.23.77-.34.28-.12.56-.24.83-.37.26-.12.51-.25.76-.38.27-.14.54-.27.8-.41.25-.14.5-.28.74-.42.26-.15.52-.29.77-.44.25-.15.49-.3.73-.46.25-.16.49-.31.74-.47.24-.16.48-.33.71-.5.24-.17.47-.33.7-.5.23-.17.46-.35.69-.53.23-.18.45-.35.68-.53.23-.19.45-.38.67-.57.21-.18.43-.37.64-.56.22-.2.43-.4.65-.6.21-.19.41-.39.61-.58.21-.21.41-.42.62-.63.19-.2.39-.4.58-.61.2-.22.4-.44.59-.67.16-.18.32-.37.48-.55l-4.07-4.87Z"/>
            <polygon class="cls-6" points="74.69 74.52 75.83 75.89 78.43 75.89 75.99 72.96 74.69 74.52"/>
            <polygon class="cls-6" points="73.55 75.89 75.83 75.89 74.69 74.52 73.55 75.89"/>
            <path class="cls-6" d="M98.1,60.26l.23-1.06.1-.46.6-.21.18-.06-1.62-1.94c-.1.15-.2.3-.31.45-.16.23-.32.45-.48.67-.14.19-.27.38-.41.57l1.7,2.04Z"/>
            <path class="cls-6" d="M96.8,57.66c.16-.22.32-.45.48-.67-.16.23-.32.45-.48.67Z"/>
            <path class="cls-6" d="M96.8,57.66c-.14.19-.27.38-.41.56h0c.14-.18.27-.37.41-.56Z"/>
            <path class="cls-6" d="M97.58,56.53c-.1.15-.2.31-.3.46.1-.15.21-.3.31-.45h0Z"/>
            <path class="cls-6" d="M96.8,57.66c.16-.22.32-.45.48-.67.1-.15.2-.3.3-.46l-1.87-2.24-.74.88-2.06-2.46-.56.67,4.04,4.83c.14-.19.28-.37.41-.56Z"/>
            <rect class="cls-6" x="95.92" y="59.24" width="2.65" height="0"/>
            <rect class="cls-6" x="96.39" y="58.22" width="0" height="0" transform="translate(-14.79 76.1) rotate(-40.27)"/>
            <rect class="cls-6" x="94.37" y="52.66" height="6.29"/>
            <path class="cls-6" d="M96.39,58.22c-.04.06-.09.11-.13.16-.17.22-.34.44-.51.65-.19.23-.37.47-.57.7-.02.03-.04.05-.06.08l2.44,2.91.54-2.47-1.7-2.04Z"/>
            <path class="cls-6" d="M96.27,58.39c-.17.22-.34.44-.51.65.17-.22.35-.43.51-.65Z"/>
            <path class="cls-6" d="M95.12,59.82h0s.04-.05.06-.08c-.02.03-.05.05-.07.08Z"/>
            <path class="cls-6" d="M95.75,59.04c-.19.23-.37.47-.57.7.19-.23.38-.46.57-.7Z"/>
            <path class="cls-6" d="M96.39,58.22h0c-.04.05-.08.11-.12.16.04-.06.09-.11.13-.16Z"/>
            <path class="cls-6" d="M95.12,59.82s.05-.05.07-.08c.19-.23.38-.46.57-.7.17-.22.35-.43.51-.65.04-.06.08-.11.12-.17l-4.04-4.83-1.3,1.56,4.07,4.87Z"/>
            <path class="cls-1" d="M103.01,43.35h0s-4.84-3.23-4.84-3.23l-3.19,8.82-2.06-2.46-1.87,2.23-14.39-17.21-5.23,6.25-9.89-11.83-12.44,14.88-4.79-5.72-11.29,13.5h0s-2.74,3.28-2.74,3.28l-3.43-4.11L0,79.89h133.55l-30.54-36.53ZM108.55,75.89h-35l1.14-1.36,1.3-1.56,1.35-1.62h0s13.71-16.4,13.71-16.4l1.3-1.56.56-.67,2.06,2.46.74-.88,4.37-5.22.64,1.69h0s2.41,6.38,2.41,6.38l-3.93,1.34-.18.06-.6.21-.1.46-.23,1.06-.54,2.47-1.73,7.93,2.72-6.75.85-2.1.58-1.44.71-.14,3.92-.78,1.64-.26-.64-1.8-2.06-7.17,21.46,25.67h-16.44ZM46.79,75.89h-21.79l8.9-10.65,5.06-6.05h0s1.66-1.99,1.66-1.99l8.48-10.15,1.3-1.56,1.3-1.56,9.83-11.76,4.8,5.74,3.49,4.17,1.6,1.91.35-.42,1.52,3.64-4.65,2.22-.84.6.26.75,3.83,11.23.37,1.08-1.66-11.85,3.61-1.99,1.32-.6-.5-1.71h0s-1.57-5.36-1.57-5.36l.55-.66,2.65-3.17,2.91,3.49,4.39,5.25,4.48,5.35-15.06,18.01-1.3,1.56-.96,1.15h0s-.34.4-.34.4l-2.44,2.92h-21.55ZM12.2,71.53l14.66-17.53,3.43,4.11.11-.14c.5.9,1.2,2.09,1.82,3.03l-.93,1.11-11.51,13.77h-11.22l3.64-4.35ZM34.8,52.71h0s9.04-10.82,9.04-10.82l.48-.58,2.18,2.61-4.13,4.93-5.82,6.96h0s-3.3,3.95-3.3,3.95c-.26-1.32-.63-2.85-.95-4.08l2.49-2.97Z"/>
          </g>
          <g>
            <path class="cls-1" d="M153.3,76.91v3.41c0,.05,0,.1-.02.15-.02.04-.07.06-.15.06h-.37c-.08,0-.13-.02-.15-.06-.02-.04-.02-.09-.02-.15v-3.41h-1.05c-.09,0-.15-.01-.18-.04-.03-.03-.04-.08-.04-.17v-.27c0-.05,0-.1.02-.15.02-.04.07-.07.15-.07h2.88c.08,0,.13.02.15.07.02.04.03.09.03.15v.27c0,.09-.01.14-.04.17-.02.03-.08.04-.18.04h-1.04Z"/>
            <path class="cls-1" d="M159.39,78.79c0,.25-.05.48-.15.7s-.23.41-.4.57-.37.29-.6.38-.47.14-.73.14-.5-.05-.73-.14-.43-.22-.6-.38-.31-.35-.41-.57-.15-.45-.15-.7v-.85c0-.25.05-.48.15-.7.1-.22.24-.41.41-.57.17-.16.37-.29.6-.38.23-.09.47-.14.73-.14s.5.05.73.14.43.22.6.38c.17.16.3.35.4.57.1.22.15.45.15.7v.85ZM158.67,77.94c0-.15-.03-.29-.09-.43-.06-.13-.14-.25-.25-.35s-.23-.18-.37-.24c-.14-.06-.29-.09-.45-.09s-.31.03-.45.09c-.14.06-.27.14-.37.24-.1.1-.19.21-.25.35-.06.13-.09.28-.09.43v.85c0,.15.03.29.09.43.06.13.14.25.25.35.1.1.23.18.37.24.14.06.29.09.45.09s.31-.03.45-.09c.14-.06.26-.14.37-.24s.19-.22.25-.35c.06-.13.09-.27.09-.43v-.85Z"/>
            <path class="cls-1" d="M163.81,79.16c0,.19-.04.37-.11.53-.07.17-.17.31-.3.43-.13.12-.28.22-.45.29-.17.07-.35.11-.53.11h-.42c-.18,0-.35-.03-.51-.1s-.3-.16-.42-.28c-.12-.12-.21-.25-.28-.41-.07-.16-.11-.33-.11-.51v-2.84c0-.12.06-.17.17-.17h.36c.08,0,.13.02.15.07.02.04.02.09.02.15v2.8c0,.08.02.16.05.23.03.07.08.13.13.19.06.05.12.1.19.13.07.03.15.05.23.05h.42c.09,0,.18-.02.26-.05s.15-.08.22-.14c.06-.06.11-.13.15-.21s.05-.17.05-.26v-2.73c0-.05,0-.1.03-.15.02-.04.07-.07.15-.07h.36c.12,0,.18.06.18.17v2.77Z"/>
            <path class="cls-1" d="M166.93,76.14c.19,0,.36.03.53.09.17.06.32.14.46.24.14.1.27.23.38.37.11.14.21.3.28.48.02.06.02.11-.01.15-.03.04-.08.06-.16.06h-.39c-.07,0-.12-.03-.16-.1h0c-.1-.18-.23-.32-.39-.43s-.34-.16-.56-.16c-.15,0-.28.03-.41.08s-.24.13-.34.23c-.1.09-.17.21-.23.34-.06.13-.08.27-.08.41v.87c0,.19.03.34.08.47.06.13.13.24.23.34.1.09.21.17.33.22s.26.08.42.08c.21,0,.4-.05.58-.14.18-.09.32-.24.41-.43.04-.08.06-.18.08-.31,0-.07.01-.12.02-.15s0-.05,0-.06h-.93s-.09-.02-.12-.05-.05-.08-.05-.12v-.33c0-.12.06-.17.17-.17h1.43c.11,0,.17.06.17.17,0,.04,0,.07,0,.1,0,.03,0,.06,0,.1,0,.04,0,.08,0,.11v.11s0,.05,0,.1c0,.05,0,.11-.02.18,0,.08-.02.14-.02.21,0,.06-.02.12-.04.17-.03.1-.07.2-.12.3-.05.1-.12.2-.19.3-.17.22-.38.38-.61.49-.24.1-.5.15-.78.14-.24,0-.47-.05-.69-.14-.21-.09-.4-.21-.56-.37s-.29-.34-.38-.56c-.09-.22-.14-.46-.14-.73v-.87c0-.24.05-.47.14-.68s.22-.4.38-.56c.16-.16.34-.28.56-.38.21-.09.44-.14.69-.14Z"/>
            <path class="cls-1" d="M170.73,78.28l1.68-.72v-1.13c0-.05,0-.1.03-.15.02-.04.07-.07.15-.07h.36c.05,0,.09.02.13.05.04.04.05.08.05.12v3.97s-.02.08-.05.12-.08.05-.13.05h-.36c-.08,0-.13-.02-.15-.06-.02-.04-.03-.09-.03-.15v-1.97l-1.68.71v1.26c0,.05,0,.1-.02.15-.01.04-.07.06-.16.06h-.37c-.05,0-.09-.02-.12-.05-.03-.04-.04-.08-.04-.12v-3.97s0-.08.04-.12c.03-.04.07-.05.12-.05h.37c.09,0,.14.02.16.07.01.04.02.09.02.15v1.85Z"/>
            <path class="cls-1" d="M178.49,76.14c.19,0,.36.03.53.09.17.06.32.14.46.24.14.1.27.23.38.37.11.14.21.3.28.48.02.06.02.11-.01.15-.03.04-.08.06-.16.06h-.39c-.07,0-.12-.03-.16-.1h0c-.1-.18-.23-.32-.39-.43s-.34-.16-.56-.16c-.15,0-.28.03-.41.08s-.24.13-.34.23c-.1.09-.17.21-.23.34-.06.13-.08.27-.08.41v.87c0,.19.03.34.08.47.06.13.13.24.23.34.1.09.21.17.33.22s.26.08.42.08c.21,0,.4-.05.58-.14.18-.09.32-.24.41-.43.04-.08.06-.18.08-.31,0-.07.01-.12.02-.15s0-.05,0-.06h-.93s-.09-.02-.12-.05-.05-.08-.05-.12v-.33c0-.12.06-.17.17-.17h1.43c.11,0,.17.06.17.17,0,.04,0,.07,0,.1,0,.03,0,.06,0,.1,0,.04,0,.08,0,.11v.11s0,.05,0,.1c0,.05,0,.11-.02.18,0,.08-.02.14-.02.21,0,.06-.02.12-.04.17-.03.1-.07.2-.12.3-.05.1-.12.2-.19.3-.17.22-.38.38-.61.49-.24.1-.5.15-.78.14-.24,0-.47-.05-.69-.14-.21-.09-.4-.21-.56-.37s-.29-.34-.38-.56c-.09-.22-.14-.46-.14-.73v-.87c0-.24.05-.47.14-.68s.22-.4.38-.56c.16-.16.34-.28.56-.38.21-.09.44-.14.69-.14Z"/>
            <path class="cls-1" d="M181.75,80.53s-.09-.02-.12-.05-.05-.07-.05-.12v-3.97c-.01-.05,0-.09.04-.12.04-.03.08-.05.13-.05h2.61c.09,0,.14.02.16.07.01.04.02.09.02.15v.3c0,.1-.01.16-.04.18-.03.02-.08.03-.18.03h-2.02v.96h1.8c.05,0,.09.02.12.05.03.03.05.08.05.13v.37c0,.05-.02.09-.05.13-.03.03-.07.05-.12.05h-1.8v1.2h2.09c.09,0,.15.01.18.03.03.02.04.08.04.18v.29c0,.05,0,.1-.02.15s-.07.07-.16.07h-2.68Z"/>
            <path class="cls-1" d="M189.19,80.36c0,.12-.06.17-.17.17h-.39c-.06,0-.1-.01-.12-.04-.02-.03-.04-.06-.06-.1l-.49-1.42-1.33.59-.3.83s-.04.08-.05.1c-.02.03-.06.04-.12.04h-.37s-.08-.02-.12-.05c-.04-.03-.06-.07-.06-.12,0,0,.02-.06.05-.16.04-.11.08-.25.14-.42s.13-.37.2-.6.15-.46.23-.7.16-.48.24-.71.16-.45.22-.64.13-.36.18-.5c.05-.14.08-.23.1-.27.02-.04.04-.07.06-.1.02-.03.06-.04.11-.04h.47c.05,0,.09.01.11.04.02.03.04.06.06.1l1.38,3.94s0,.03,0,.04v.03ZM187.71,78.26c-.03-.09-.06-.16-.08-.21-.02-.06-.04-.1-.04-.13,0-.03-.02-.06-.03-.08-.01-.03-.02-.06-.03-.08-.02-.05-.04-.11-.06-.17-.02-.06-.04-.13-.07-.22l-.44,1.22.74-.33Z"/>
            <path class="cls-1" d="M192.39,76.22c.12,0,.24.03.35.08.11.05.21.12.29.2.08.08.15.18.2.29.05.11.08.23.08.35,0,.21-.05.37-.15.5-.1.13-.23.25-.38.35.06.15.11.3.17.44.05.14.11.29.16.44.09.24.17.48.26.71s.18.48.27.72c.03.07.03.13,0,.16s-.09.06-.16.06h-.41c-.06,0-.1-.01-.12-.04-.02-.03-.04-.06-.05-.09l-.78-2.06c-.19.1-.37.19-.54.29-.17.09-.36.19-.55.29v1.4c0,.05,0,.1-.02.15-.02.04-.07.06-.15.06h-.38c-.05,0-.09-.02-.12-.05-.03-.04-.05-.08-.05-.12v-3.97s0-.08.04-.12c.03-.04.08-.05.13-.05h1.92ZM191.03,76.93v1.18c.07-.04.16-.08.25-.12.1-.05.2-.1.3-.15.11-.06.21-.11.32-.17s.2-.11.29-.16c.09-.05.16-.1.22-.15.06-.04.1-.08.12-.11h0s.03-.06.03-.11c0-.06-.02-.11-.06-.15-.04-.04-.09-.06-.15-.06h-1.32Z"/>
            <path class="cls-1" d="M197.18,80.53s-.08-.02-.12-.05-.05-.07-.05-.12v-3.97c-.01-.05,0-.09.04-.12.04-.03.08-.05.12-.05h2.5c.08,0,.13.02.15.07.02.04.03.09.03.15v.3c0,.1-.01.16-.04.18s-.08.03-.18.03h-1.91v1.01h1.8c.12,0,.17.06.17.17v.37c0,.12-.06.17-.17.17h-1.8v1.65c0,.05,0,.1-.02.15-.01.04-.07.07-.16.07h-.37Z"/>
            <path class="cls-1" d="M204.77,78.79c0,.25-.05.48-.15.7s-.23.41-.4.57-.37.29-.6.38-.47.14-.73.14-.5-.05-.73-.14-.43-.22-.6-.38-.31-.35-.41-.57-.15-.45-.15-.7v-.85c0-.25.05-.48.15-.7.1-.22.24-.41.41-.57.17-.16.37-.29.6-.38.23-.09.47-.14.73-.14s.5.05.73.14.43.22.6.38c.17.16.3.35.4.57.1.22.15.45.15.7v.85ZM204.04,77.94c0-.15-.03-.29-.09-.43-.06-.13-.14-.25-.25-.35s-.23-.18-.37-.24c-.14-.06-.29-.09-.45-.09s-.31.03-.45.09c-.14.06-.27.14-.37.24-.1.1-.19.21-.25.35-.06.13-.09.28-.09.43v.85c0,.15.03.29.09.43.06.13.14.25.25.35.1.1.23.18.37.24.14.06.29.09.45.09s.31-.03.45-.09c.14-.06.26-.14.37-.24s.19-.22.25-.35c.06-.13.09-.27.09-.43v-.85Z"/>
            <path class="cls-1" d="M208.16,76.22c.12,0,.24.03.35.08.11.05.21.12.29.2.08.08.15.18.2.29.05.11.08.23.08.35,0,.21-.05.37-.15.5-.1.13-.23.25-.38.35.06.15.11.3.17.44.05.14.11.29.16.44.09.24.17.48.26.71s.18.48.27.72c.03.07.03.13,0,.16s-.09.06-.16.06h-.41c-.06,0-.1-.01-.12-.04-.02-.03-.04-.06-.05-.09l-.78-2.06c-.19.1-.37.19-.54.29-.17.09-.36.19-.55.29v1.4c0,.05,0,.1-.02.15-.02.04-.07.06-.15.06h-.38c-.05,0-.09-.02-.12-.05-.03-.04-.05-.08-.05-.12v-3.97s0-.08.04-.12c.03-.04.08-.05.13-.05h1.92ZM206.8,76.93v1.18c.07-.04.16-.08.25-.12.1-.05.2-.1.3-.15.11-.06.21-.11.32-.17s.2-.11.29-.16c.09-.05.16-.1.22-.15.06-.04.1-.08.12-.11h0s.03-.06.03-.11c0-.06-.02-.11-.06-.15-.04-.04-.09-.06-.15-.06h-1.32Z"/>
            <path class="cls-1" d="M212.96,80.53s-.09-.02-.12-.05-.05-.07-.05-.12v-3.97c-.01-.05,0-.09.04-.12.04-.03.08-.05.13-.05h2.61c.09,0,.14.02.16.07.01.04.02.09.02.15v.3c0,.1-.01.16-.04.18-.03.02-.08.03-.18.03h-2.02v.96h1.8c.05,0,.09.02.12.05.03.03.05.08.05.13v.37c0,.05-.02.09-.05.13-.03.03-.07.05-.12.05h-1.8v1.2h2.09c.09,0,.15.01.18.03.03.02.04.08.04.18v.29c0,.05,0,.1-.02.15s-.07.07-.16.07h-2.68Z"/>
            <path class="cls-1" d="M220.5,76.39s-.02.07-.05.18-.08.26-.14.43l-.58,1.6-.56,1.54-.09.25s-.04.08-.06.1c-.02.03-.06.04-.11.04h-.47c-.06,0-.1-.01-.12-.04-.02-.03-.04-.06-.05-.09l-.37-1.07c-.17-.49-.33-.96-.49-1.42-.16-.46-.34-.94-.54-1.42-.01-.02-.02-.04-.02-.05,0-.02,0-.03,0-.04,0-.12.06-.17.18-.17h.42c.05,0,.09.01.11.04.02.03.04.06.06.1l1.06,3.14,1.05-3.14v.03s0-.01,0-.01c0,0,0,0,0,0,.03-.1.09-.15.17-.15h.43s.08.02.12.05c.04.04.05.08.05.12Z"/>
            <path class="cls-1" d="M221.81,80.53s-.09-.02-.12-.05-.05-.07-.05-.12v-3.97c-.01-.05,0-.09.04-.12.04-.03.08-.05.13-.05h2.61c.09,0,.14.02.16.07.01.04.02.09.02.15v.3c0,.1-.01.16-.04.18-.03.02-.08.03-.18.03h-2.02v.96h1.8c.05,0,.09.02.12.05.03.03.05.08.05.13v.37c0,.05-.02.09-.05.13-.03.03-.07.05-.12.05h-1.8v1.2h2.09c.09,0,.15.01.18.03.03.02.04.08.04.18v.29c0,.05,0,.1-.02.15s-.07.07-.16.07h-2.68Z"/>
            <path class="cls-1" d="M228.02,76.22c.12,0,.24.03.35.08.11.05.21.12.29.2.08.08.15.18.2.29.05.11.08.23.08.35,0,.21-.05.37-.15.5-.1.13-.23.25-.38.35.06.15.11.3.17.44.05.14.11.29.16.44.09.24.17.48.26.71s.18.48.27.72c.03.07.03.13,0,.16s-.09.06-.16.06h-.41c-.06,0-.1-.01-.12-.04-.02-.03-.04-.06-.05-.09l-.78-2.06c-.19.1-.37.19-.54.29-.17.09-.36.19-.55.29v1.4c0,.05,0,.1-.02.15-.02.04-.07.06-.15.06h-.38c-.05,0-.09-.02-.12-.05-.03-.04-.05-.08-.05-.12v-3.97s0-.08.04-.12c.03-.04.08-.05.13-.05h1.92ZM226.65,76.93v1.18c.07-.04.16-.08.25-.12.1-.05.2-.1.3-.15.11-.06.21-.11.32-.17s.2-.11.29-.16c.09-.05.16-.1.22-.15.06-.04.1-.08.12-.11h0s.03-.06.03-.11c0-.06-.02-.11-.06-.15-.04-.04-.09-.06-.15-.06h-1.32Z"/>
            <path class="cls-1" d="M232.97,76.29s.08-.07.15-.07h.49c.12,0,.17.06.17.17,0,.03,0,.06-.02.08s-.03.05-.04.06c0,0,0,0,0,0s0,0,0,0h0s-1.39,1.99-1.39,1.99v1.79c0,.05,0,.1-.02.15s-.07.06-.16.06h-.37c-.08,0-.13-.02-.15-.06-.02-.04-.02-.09-.02-.15v-1.8l-1.42-2.03s-.02-.03-.02-.05c0-.01,0-.03,0-.05,0-.11.06-.17.17-.17h.48c.06,0,.12.03.16.08l1.01,1.49c.28-.43.5-.78.67-1.03.17-.25.28-.41.34-.49h-.01Z"/>
            <path class="cls-1" d="M238.88,76.91v3.41c0,.05,0,.1-.02.15-.02.04-.07.06-.15.06h-.37c-.08,0-.13-.02-.15-.06-.02-.04-.02-.09-.02-.15v-3.41h-1.05c-.09,0-.15-.01-.18-.04-.03-.03-.04-.08-.04-.17v-.27c0-.05,0-.1.02-.15.02-.04.07-.07.15-.07h2.88c.08,0,.13.02.15.07.02.04.03.09.03.15v.27c0,.09-.01.14-.04.17-.02.03-.08.04-.18.04h-1.04Z"/>
            <path class="cls-1" d="M243.36,76.22c.12,0,.24.03.35.08.11.05.21.12.29.2.08.08.15.18.2.29.05.11.08.23.08.35,0,.21-.05.37-.15.5-.1.13-.23.25-.38.35.06.15.11.3.17.44.05.14.11.29.16.44.09.24.17.48.26.71s.18.48.27.72c.03.07.03.13,0,.16s-.09.06-.16.06h-.41c-.06,0-.1-.01-.12-.04-.02-.03-.04-.06-.05-.09l-.78-2.06c-.19.1-.37.19-.54.29-.17.09-.36.19-.55.29v1.4c0,.05,0,.1-.02.15-.02.04-.07.06-.15.06h-.38c-.05,0-.09-.02-.12-.05-.03-.04-.05-.08-.05-.12v-3.97s0-.08.04-.12c.03-.04.08-.05.13-.05h1.92ZM242,76.93v1.18c.07-.04.16-.08.25-.12.1-.05.2-.1.3-.15.11-.06.21-.11.32-.17s.2-.11.29-.16c.09-.05.16-.1.22-.15.06-.04.1-.08.12-.11h0s.03-.06.03-.11c0-.06-.02-.11-.06-.15-.04-.04-.09-.06-.15-.06h-1.32Z"/>
            <path class="cls-1" d="M249.07,80.36c0,.12-.06.17-.17.17h-.39c-.06,0-.1-.01-.12-.04-.02-.03-.04-.06-.06-.1l-.49-1.42-1.33.59-.3.83s-.04.08-.05.1c-.02.03-.06.04-.12.04h-.37s-.08-.02-.12-.05c-.04-.03-.06-.07-.06-.12,0,0,.02-.06.05-.16.04-.11.08-.25.14-.42s.13-.37.2-.6.15-.46.23-.7.16-.48.24-.71.16-.45.22-.64.13-.36.18-.5c.05-.14.08-.23.1-.27.02-.04.04-.07.06-.1.02-.03.06-.04.11-.04h.47c.05,0,.09.01.11.04.02.03.04.06.06.1l1.38,3.94s0,.03,0,.04v.03ZM247.59,78.26c-.03-.09-.06-.16-.08-.21-.02-.06-.04-.1-.04-.13,0-.03-.02-.06-.03-.08-.01-.03-.02-.06-.03-.08-.02-.05-.04-.11-.06-.17-.02-.06-.04-.13-.07-.22l-.44,1.22.74-.33Z"/>
            <path class="cls-1" d="M250.9,80.36s-.02.08-.05.12-.08.05-.13.05h-.37c-.05,0-.09-.02-.12-.05-.03-.04-.04-.08-.04-.12v-3.97s0-.08.04-.12c.03-.04.07-.05.12-.05h.37c.05,0,.09.02.13.05.03.04.05.08.05.12v3.97Z"/>
            <path class="cls-1" d="M252.44,80.53c-.11,0-.16-.06-.16-.17v-3.97c-.01-.12.05-.17.16-.17h.37c.08,0,.13.02.15.07.02.04.02.09.02.15v3.39h1.79c.1,0,.16.01.18.03s.03.08.03.18v.29c0,.05,0,.1-.02.15-.02.04-.07.07-.15.07h-2.37Z"/>
          </g>
          <g>
            <path class="cls-7" d="M149.05,26.09c.15,0,.3.02.45.06s.25.2.33.46l2.73,11.17c.49-1.9.97-3.76,1.45-5.57.47-1.81.95-3.67,1.43-5.59l-.02.06c.07-.41.3-.61.69-.61h1.01c.36,0,.59.18.67.54l2.87,11.15,2.75-11.17c.07-.27.17-.42.3-.46s.28-.06.45-.06h1.17c.08,0,.18,0,.29.02.11.01.21.05.3.1s.16.13.22.22c.06.09.07.21.04.37l-.06.34c-.24,1.26-.51,2.53-.82,3.8-.31,1.28-.63,2.56-.96,3.85-.33,1.29-.67,2.57-1.02,3.85-.34,1.28-.66,2.53-.95,3.76-.06.13-.11.23-.16.31s-.21.13-.49.13h-2.05c-.24,0-.4-.05-.48-.14s-.14-.2-.17-.33c-.25-.92-.49-1.86-.72-2.8s-.46-1.88-.7-2.8l-1.01-3.94-2.39,9.52c-.06.14-.12.25-.18.35-.06.09-.21.14-.45.14h-2.08c-.27,0-.43-.04-.48-.13s-.12-.21-.19-.38l-3.75-15.2s-.02-.09-.03-.15c0-.06-.01-.12-.01-.21,0-.35.09-.55.27-.61s.38-.08.59-.08h1.17Z"/>
            <path class="cls-7" d="M173.65,42.17c0,.17-.07.32-.2.46s-.3.21-.49.21h-1.43c-.2,0-.35-.07-.46-.21-.11-.14-.17-.29-.17-.46l-.04-15.43c0-.17.06-.32.19-.46.13-.14.29-.21.48-.21h1.43c.2,0,.36.07.49.21.13.14.2.29.2.46v15.43Z"/>
            <path class="cls-7" d="M179.64,42.84c-.42,0-.63-.22-.63-.67l-.04-15.43c0-.45.22-.67.67-.67h1.45c.32,0,.51.08.58.25.06.17.09.36.09.57v13.17h6.96c.38,0,.61.04.69.13s.13.31.13.69v1.13c0,.21-.03.4-.09.58-.06.18-.25.26-.58.26h-9.22Z"/>
            <path class="cls-7" d="M200.98,26.07c.92,0,1.79.17,2.59.52.8.35,1.51.82,2.12,1.42.61.6,1.09,1.31,1.44,2.12.35.81.52,1.67.52,2.58v3.48c0,.91-.17,1.77-.52,2.58-.35.81-.83,1.52-1.44,2.12-.61.6-1.31,1.08-2.12,1.43-.8.35-1.67.52-2.59.52h-5.93c-.2,0-.36-.06-.48-.19-.13-.13-.19-.29-.19-.48l-.04-15.43c0-.17.07-.32.21-.46.14-.14.31-.21.5-.21h5.93ZM197.15,28.85v11.2h3.84c.53,0,1.03-.1,1.5-.3.47-.2.88-.48,1.24-.84s.64-.76.84-1.23c.2-.46.3-.96.3-1.49v-3.48c0-.52-.1-1.01-.3-1.48-.2-.47-.48-.88-.84-1.24s-.77-.64-1.24-.84c-.47-.2-.97-.3-1.5-.3h-3.84Z"/>
            <path class="cls-7" d="M224.61,37.64c0,.41-.04.81-.12,1.22-.08.41-.19.79-.33,1.16-.14.37-.31.71-.5,1.03-.2.31-.41.58-.65.79-.47.42-1.04.72-1.69.91-.65.19-1.35.28-2.11.28h-1.59c-.92,0-1.77-.21-2.54-.64-.77-.43-1.38-1-1.82-1.73-.31-.45-.5-.9-.59-1.36-.08-.43-.13-.77-.14-1,0-.23-.01-.46-.01-.7v.04c0-.21.03-.4.09-.57.06-.17.25-.25.58-.25h1.43c.33,0,.54.17.63.5.04.14.06.25.06.32v.36c0,.06,0,.13.01.22s.02.21.03.35c.11.52.38.94.81,1.28.43.33.91.5,1.46.5h1.59c.63,0,1.18-.16,1.67-.48.48-.32.77-.76.87-1.32.01-.07.02-.14.03-.21,0-.07.01-.14.01-.21s0-.16.01-.26,0-.21-.02-.33c-.02-.11-.06-.22-.1-.33-.05-.11-.12-.21-.2-.29-.29-.25-.74-.45-1.34-.59s-1.28-.3-2.03-.48c-.67-.15-1.34-.33-2-.52-.66-.2-1.26-.45-1.79-.76s-.96-.71-1.29-1.18c-.33-.48-.49-1.06-.49-1.76v-.29c0-.22,0-.45.01-.68,0-.23.04-.49.12-.76l-.02.02c.11-.59.32-1.12.63-1.61s.69-.91,1.13-1.27.95-.64,1.5-.84c.55-.2,1.13-.3,1.73-.3h1.59c.63,0,1.23.11,1.81.33.58.22,1.11.51,1.58.89.48.38.85.91,1.11,1.58.27.68.38,1.42.36,2.23-.01.21-.05.4-.1.57s-.25.25-.57.25h-1.38c-.2,0-.35-.07-.47-.21-.12-.14-.19-.29-.2-.46-.03-.89-.22-1.53-.59-1.9s-.88-.56-1.55-.56h-1.59c-.27,0-.52.05-.78.14-.25.09-.48.22-.68.39-.2.17-.38.36-.52.59s-.25.47-.3.73v-.02c-.03.18-.05.41-.05.69,0,.28.12.55.39.82.28.28.58.46.9.54l2.41.67c.63.18,1.17.33,1.61.45.45.12.8.23,1.07.33.28.1.54.21.79.33.25.12.47.25.68.39.43.29.79.69,1.06,1.2.27.5.41,1.11.41,1.82Z"/>
            <path class="cls-7" d="M232.35,42.17c0,.17-.07.32-.2.46s-.3.21-.49.21h-1.43c-.2,0-.35-.07-.46-.21-.11-.14-.17-.29-.17-.46l-.04-15.43c0-.17.06-.32.19-.46.13-.14.29-.21.48-.21h1.43c.2,0,.36.07.49.21.13.14.2.29.2.46v15.43Z"/>
            <path class="cls-7" d="M244.55,28.77v13.25c0,.21-.03.4-.09.57-.06.17-.26.25-.58.25h-1.45c-.32,0-.51-.08-.58-.25-.06-.17-.09-.36-.09-.57v-13.25h-4.07c-.36,0-.59-.05-.69-.16-.1-.1-.15-.33-.15-.66v-1.07c0-.21.03-.4.09-.57.06-.17.25-.25.58-.25h11.17c.32,0,.52.08.59.25.07.17.11.36.11.57v1.07c0,.33-.05.56-.14.66-.09.11-.32.16-.68.16h-4.03Z"/>
            <path class="cls-7" d="M254.55,42.84c-.2,0-.36-.06-.48-.19-.12-.13-.19-.29-.19-.48l-.04-15.43c0-.2.07-.36.21-.48s.31-.19.5-.19h10.13c.35,0,.55.08.61.25.06.17.08.36.08.57v1.15c0,.38-.05.61-.15.69-.1.08-.33.13-.69.13h-7.86v3.71h6.98c.2,0,.36.07.48.2.13.13.19.3.19.49v1.42c0,.2-.06.36-.19.49-.12.13-.29.2-.48.2h-6.98v4.67h8.13c.36,0,.59.04.69.13.1.08.15.31.15.69v1.13c0,.21-.03.4-.08.58-.06.18-.26.26-.61.26h-10.4Z"/>
            <path class="cls-7" d="M162.24,61.22c0,.96-.19,1.87-.58,2.72-.38.85-.91,1.58-1.57,2.21-.66.63-1.44,1.12-2.33,1.49-.89.36-1.83.54-2.84.54s-1.95-.18-2.84-.54c-.89-.36-1.67-.86-2.34-1.49s-1.2-1.37-1.58-2.21c-.38-.85-.58-1.75-.58-2.72v-3.29c0-.96.2-1.87.59-2.71.39-.85.92-1.58,1.58-2.2.66-.62,1.44-1.11,2.34-1.48s1.85-.54,2.85-.54,1.95.18,2.84.54,1.66.86,2.33,1.48c.66.62,1.18,1.36,1.56,2.2.38.85.57,1.75.57,2.71v3.29ZM159.41,57.93c0-.59-.12-1.14-.36-1.66-.24-.52-.56-.97-.96-1.36-.41-.39-.88-.7-1.42-.92-.55-.22-1.13-.34-1.74-.34s-1.2.12-1.75.35c-.55.23-1.03.54-1.44.92-.41.38-.73.83-.96,1.35-.24.52-.36,1.07-.36,1.66v3.29c0,.59.12,1.14.36,1.66.24.52.56.97.96,1.36s.88.7,1.44.92c.55.22,1.14.34,1.75.34s1.19-.11,1.74-.34c.54-.22,1.02-.53,1.42-.92s.73-.85.96-1.36c.24-.52.36-1.07.36-1.66v-3.29Z"/>
            <path class="cls-7" d="M179.41,62.67c0,.74-.14,1.43-.43,2.08-.29.64-.68,1.21-1.17,1.69-.5.48-1.07.86-1.73,1.14-.66.28-1.35.42-2.08.42h-1.61c-.7,0-1.36-.13-1.97-.39-.61-.26-1.15-.62-1.61-1.07-.46-.45-.83-.99-1.1-1.6-.27-.61-.41-1.28-.41-1.99v-11.05c0-.45.22-.67.67-.67h1.4c.32,0,.51.08.58.25.06.17.09.36.09.57v10.9c0,.32.06.62.19.9s.3.52.51.73c.22.21.46.37.74.49.28.12.58.18.9.18h1.61c.36,0,.71-.07,1.03-.2.32-.13.6-.32.84-.56.24-.24.43-.51.57-.82.14-.31.21-.64.21-1.01v-10.63c0-.21.03-.4.1-.57.07-.17.27-.25.59-.25h1.38c.46,0,.69.22.69.67v10.78Z"/>
            <path class="cls-7" d="M191.61,53.93v13.25c0,.21-.03.4-.09.57-.06.17-.26.25-.58.25h-1.45c-.32,0-.51-.08-.58-.25-.06-.17-.09-.36-.09-.57v-13.25h-4.07c-.36,0-.59-.05-.69-.16-.1-.1-.15-.33-.15-.66v-1.07c0-.21.03-.4.09-.57.06-.17.25-.25.58-.25h11.17c.32,0,.52.08.59.25.07.17.11.36.11.57v1.07c0,.33-.05.56-.14.66-.09.11-.32.16-.68.16h-4.03Z"/>
            <path class="cls-7" d="M201.59,68c-.17,0-.32-.06-.45-.19s-.2-.29-.2-.48l-.04-15.43c0-.2.07-.36.21-.48s.29-.19.46-.19h9.73c.32,0,.52.08.59.25.07.17.1.36.1.57v1.15c0,.38-.04.61-.14.69-.09.08-.33.13-.7.13h-7.44v3.94h7c.45,0,.67.22.67.67v1.45c0,.45-.22.67-.67.67h-7v6.42c0,.21-.03.4-.08.58s-.26.26-.61.26h-1.43Z"/>
            <path class="cls-7" d="M219.48,67.33c0,.17-.07.32-.2.46-.13.14-.3.21-.49.21h-1.43c-.2,0-.35-.07-.46-.21-.11-.14-.17-.29-.17-.46l-.04-15.43c0-.17.06-.32.19-.46.13-.14.29-.21.48-.21h1.43c.2,0,.36.07.49.21.13.14.2.29.2.46v15.43Z"/>
            <path class="cls-7" d="M231.68,53.93v13.25c0,.21-.03.4-.09.57-.06.17-.26.25-.58.25h-1.45c-.32,0-.51-.08-.58-.25-.06-.17-.09-.36-.09-.57v-13.25h-4.07c-.36,0-.59-.05-.69-.16-.1-.1-.15-.33-.15-.66v-1.07c0-.21.03-.4.09-.57.06-.17.25-.25.58-.25h11.17c.32,0,.52.08.59.25.07.17.11.36.11.57v1.07c0,.33-.05.56-.14.66-.09.11-.32.16-.68.16h-4.03Z"/>
            <path class="cls-7" d="M247.86,53.93v13.25c0,.21-.03.4-.09.57-.06.17-.26.25-.58.25h-1.45c-.32,0-.51-.08-.58-.25-.06-.17-.09-.36-.09-.57v-13.25h-4.07c-.36,0-.59-.05-.69-.16-.1-.1-.15-.33-.15-.66v-1.07c0-.21.03-.4.09-.57.06-.17.25-.25.58-.25h11.17c.32,0,.52.08.59.25.07.17.11.36.11.57v1.07c0,.33-.05.56-.14.66-.09.11-.32.16-.68.16h-4.03Z"/>
            <path class="cls-7" d="M257.86,68c-.2,0-.36-.06-.48-.19-.12-.13-.19-.29-.19-.48l-.04-15.43c0-.2.07-.36.21-.48s.31-.19.5-.19h10.13c.35,0,.55.08.61.25.06.17.08.36.08.57v1.15c0,.38-.05.61-.15.69-.1.08-.33.13-.69.13h-7.86v3.71h6.98c.2,0,.36.07.48.2.13.13.19.3.19.49v1.42c0,.2-.06.36-.19.49-.12.13-.29.2-.48.2h-6.98v4.68h8.13c.36,0,.59.04.69.12.1.08.15.31.15.69v1.13c0,.21-.03.4-.08.58s-.26.26-.61.26h-10.4Z"/>
            <path class="cls-7" d="M282,51.22c.47,0,.92.1,1.35.29.43.2.8.46,1.12.78.32.32.58.7.78,1.13.2.43.29.89.29,1.36,0,.8-.19,1.45-.58,1.96-.38.51-.88.97-1.48,1.37.22.59.44,1.16.65,1.72.21.56.42,1.13.63,1.72.34.92.68,1.85,1.03,2.78.35.93.71,1.86,1.07,2.8.11.28.1.49-.03.64-.13.15-.34.22-.62.22h-1.59c-.22,0-.38-.05-.46-.16s-.15-.23-.21-.37l-3.02-7.99c-.73.38-1.43.75-2.1,1.11-.67.36-1.38.74-2.14,1.13v5.45c0,.21-.03.4-.09.57-.06.17-.25.25-.58.25h-1.49c-.2,0-.35-.07-.47-.21-.12-.14-.18-.29-.18-.46l-.04-15.43c0-.17.07-.32.2-.46.13-.14.3-.21.49-.21h7.46ZM276.69,54.01v4.57c.28-.14.6-.3.97-.48s.76-.38,1.17-.6.82-.43,1.23-.65.78-.43,1.11-.63c.34-.2.63-.39.87-.57.24-.17.4-.32.47-.43v.02c.08-.13.13-.27.13-.44,0-.22-.08-.41-.23-.57-.15-.15-.35-.23-.59-.23h-5.14Z"/>
            <path class="cls-7" d="M303.11,62.8c0,.41-.04.81-.12,1.22-.08.41-.19.79-.33,1.16-.14.37-.31.71-.5,1.03-.2.31-.41.58-.65.79-.47.42-1.04.72-1.69.91-.65.19-1.35.28-2.11.28h-1.59c-.92,0-1.77-.21-2.54-.64-.77-.43-1.38-1-1.82-1.73-.31-.45-.5-.9-.59-1.36-.08-.43-.13-.77-.14-1,0-.23-.01-.46-.01-.7v.04c0-.21.03-.4.09-.57.06-.17.25-.25.58-.25h1.43c.33,0,.54.17.63.5.04.14.06.25.06.32v.36c0,.06,0,.13.01.22s.02.21.03.35c.11.52.38.94.81,1.28.43.33.91.5,1.46.5h1.59c.63,0,1.18-.16,1.67-.48.48-.32.77-.76.87-1.32.01-.07.02-.14.03-.21,0-.07.01-.14.01-.21s0-.16.01-.26,0-.21-.02-.33c-.02-.11-.06-.22-.1-.33-.05-.11-.12-.21-.2-.29-.29-.25-.74-.45-1.34-.59s-1.28-.3-2.03-.48c-.67-.15-1.34-.33-2-.52-.66-.2-1.26-.45-1.79-.76s-.96-.71-1.29-1.18c-.33-.48-.49-1.06-.49-1.76v-.29c0-.22,0-.45.01-.68,0-.23.04-.49.12-.76l-.02.02c.11-.59.32-1.12.63-1.61s.69-.91,1.13-1.27.95-.64,1.5-.84c.55-.2,1.13-.3,1.73-.3h1.59c.63,0,1.23.11,1.81.33.58.22,1.11.51,1.58.89.48.38.85.91,1.11,1.58.27.68.38,1.42.36,2.23-.01.21-.05.4-.1.57s-.25.25-.57.25h-1.38c-.2,0-.35-.07-.47-.21-.12-.14-.19-.29-.2-.46-.03-.89-.22-1.53-.59-1.9s-.88-.56-1.55-.56h-1.59c-.27,0-.52.05-.78.14-.25.09-.48.22-.68.39-.2.17-.38.36-.52.59s-.25.47-.3.73v-.02c-.03.18-.05.41-.05.69,0,.28.12.55.39.82.28.28.58.46.9.54l2.41.67c.63.18,1.17.33,1.61.45.45.12.8.23,1.07.33.28.1.54.21.79.33.25.12.47.25.68.39.43.29.79.69,1.06,1.2.27.5.41,1.11.41,1.82Z"/>
          </g>
        </g>
      </g>
    </g>
  </g>
</svg>